<svg width="67" height="59" viewBox="0 0 67 59" fill="none" xmlns="http://www.w3.org/2000/svg">
<path d="M46.2398 54.9713C46.2835 54.9366 46.3188 54.8926 46.343 54.8423C46.3673 54.7921 46.3799 54.7371 46.3798 54.6813L45.9898 47.6813L49.3598 45.6213C49.6128 45.4684 49.833 45.267 50.0078 45.0287C50.1826 44.7903 50.3085 44.5197 50.3782 44.2325C50.4479 43.9452 50.4601 43.647 50.414 43.3551C50.368 43.0631 50.2646 42.7831 50.1098 42.5313L48.8398 40.4413C48.5273 39.9318 48.0257 39.5667 47.4447 39.4262C46.8637 39.2856 46.2507 39.381 45.7398 39.6913L45.5598 39.8013L44.7698 25.4213L60.7698 17.1713C61.6074 16.6614 62.3355 15.9906 62.9123 15.1976C63.489 14.4046 63.9028 13.5052 64.1299 12.5513L64.1898 12.2813L66.3498 8.85132C66.7077 8.27486 66.8974 7.60983 66.8974 6.9313C66.8974 6.25278 66.7077 5.58775 66.3498 5.01129C65.996 4.42912 65.4862 3.95762 64.8783 3.65012C64.2704 3.34261 63.5885 3.21139 62.9099 3.2713L58.9099 3.62131C57.9187 3.33863 56.8794 3.26556 55.8585 3.40674C54.8375 3.54792 53.8571 3.90027 52.9798 4.44131L38.2398 14.8513L25.8198 7.57129L25.9998 7.4613C26.5094 7.14881 26.8744 6.64715 27.015 6.06616C27.1555 5.48517 27.0602 4.87216 26.7498 4.3613L25.4798 2.2713C25.1655 1.76379 24.664 1.4005 24.0837 1.26013C23.5035 1.11976 22.8914 1.21359 22.3799 1.5213L19.0098 3.5813L13.0098 0.0413184C12.9591 0.014182 12.9024 -2.3602e-06 12.8448 -2.36271e-06C12.7873 -2.36523e-06 12.7306 0.014182 12.6798 0.0413184L6.95984 2.9913C6.90555 3.02136 6.85971 3.06461 6.82651 3.11703C6.7933 3.16946 6.77381 3.22936 6.76984 3.29129C6.75502 3.35037 6.75502 3.41223 6.76984 3.47131C6.80283 3.52123 6.84744 3.56241 6.89984 3.59131L9.83984 5.23129L11.9498 7.88131L10.4298 8.81131C10.3916 8.83482 10.3584 8.86566 10.3322 8.90207C10.3059 8.93847 10.2872 8.97971 10.2769 9.0234C10.2667 9.0671 10.2653 9.11238 10.2726 9.15664C10.28 9.20091 10.296 9.24328 10.3198 9.28131L10.4898 9.56131L9.16983 10.3713C8.94785 10.5098 8.78899 10.7297 8.72729 10.9839C8.6656 11.2382 8.70601 11.5065 8.83984 11.7313L10.7298 14.8313C10.8683 15.0533 11.0883 15.2121 11.3425 15.2738C11.5967 15.3355 11.865 15.2951 12.0898 15.1613L13.4099 14.3513L13.5798 14.6313C13.6275 14.7082 13.7031 14.7635 13.7907 14.7859C13.8783 14.8083 13.9712 14.7959 14.0498 14.7513L16.2998 13.3713L24.9698 24.2813L12.0698 33.4613L3.61984 29.9413L-0.000153978 31.8013L5.66983 38.1113L3.34982 40.8013L5.71985 44.6913L9.10983 43.7613L12.1098 51.6713L15.4198 49.3113L16.1598 40.1813L30.5098 32.7613L35.9598 45.6113L33.6998 46.9913C33.6237 47.0371 33.5685 47.1109 33.5461 47.1968C33.5237 47.2828 33.5358 47.3741 33.5798 47.4513L33.7598 47.7413L32.4298 48.5513C32.2122 48.6912 32.0573 48.91 31.9976 49.1618C31.938 49.4135 31.9782 49.6786 32.1098 49.9013L33.9998 53.0013C34.1382 53.2206 34.3563 53.3776 34.6082 53.4391C34.86 53.5007 35.1259 53.462 35.3498 53.3313L36.6798 52.5313L36.8498 52.8113C36.8733 52.8495 36.9042 52.8827 36.9406 52.9089C36.977 52.9352 37.0182 52.9539 37.0619 52.9642C37.1056 52.9744 37.1509 52.9759 37.1952 52.9685C37.2394 52.9612 37.2818 52.9451 37.3198 52.9213L38.8398 52.0013L40.2298 55.0813L40.3398 58.4513C40.3458 58.5106 40.3628 58.5682 40.3898 58.6213C40.4264 58.6744 40.4742 58.7188 40.5298 58.7513C40.5834 58.7811 40.6436 58.7967 40.7048 58.7967C40.7661 58.7967 40.8263 58.7811 40.8798 58.7513L46.2398 54.9713ZM19.7498 3.97131L22.7498 2.1113C23.1067 1.89306 23.5355 1.82525 23.9423 1.92273C24.3491 2.02021 24.7006 2.27504 24.9198 2.63132L26.1998 4.72131C26.4145 5.08005 26.4793 5.5089 26.3801 5.91504C26.2809 6.32118 26.0257 6.67191 25.6698 6.89129L25.1798 7.19131L22.4398 5.5813L19.7498 3.97131ZM11.8198 14.5813C11.7506 14.6225 11.668 14.6351 11.5896 14.6164C11.5112 14.5978 11.4431 14.5493 11.3998 14.4813L9.50983 11.3713C9.4881 11.3374 9.47344 11.2994 9.4667 11.2597C9.45997 11.2199 9.46131 11.1793 9.47064 11.1401C9.47998 11.1009 9.49711 11.064 9.52103 11.0315C9.54494 10.9991 9.57515 10.9718 9.60983 10.9513L10.9298 10.1413L13.1498 13.7713L11.8198 14.5813ZM14.0798 13.9913L11.1599 9.2113L12.4598 8.42129L15.9698 12.8413L14.0798 13.9913ZM16.7398 12.7213L12.8098 7.72131L10.4298 4.72131C10.4014 4.68625 10.3677 4.65588 10.3298 4.63131L7.87985 3.2713L12.8799 0.691282L21.8799 5.95129L25.0898 7.84131L37.7298 15.2513L25.5898 23.8113L16.7398 12.7213ZM46.0898 40.2913C46.4467 40.0731 46.8755 40.0053 47.2823 40.1028C47.6891 40.2002 48.0406 40.455 48.2598 40.8113L49.5298 42.9013C49.7481 43.2582 49.8159 43.687 49.7184 44.0938C49.6209 44.5006 49.3661 44.8521 49.0098 45.0713L45.9498 46.9313L45.7798 43.7613L45.5998 40.5813L46.0898 40.2913ZM62.9798 3.95129C63.5333 3.89675 64.0909 4.00143 64.5869 4.25299C65.0829 4.50455 65.4968 4.89253 65.7798 5.37131C66.0758 5.83966 66.2328 6.38231 66.2328 6.93631C66.2328 7.49031 66.0758 8.03296 65.7798 8.50131L64.3498 10.7813L64.3498 10.6813C64.3497 10.4202 64.3297 10.1594 64.2898 9.90131C64.2996 9.82495 64.2996 9.74765 64.2898 9.6713C64.2501 9.37747 64.1899 9.08677 64.1098 8.8013L64.1098 8.72131C64.0299 8.45671 63.9364 8.19637 63.8298 7.94131L63.7298 7.73129C63.6099 7.45136 63.4695 7.18063 63.3098 6.9213C63.1498 6.66129 62.9698 6.41129 62.7898 6.17129L62.6398 5.9913C62.4603 5.77845 62.27 5.57486 62.0698 5.38132L62.0198 5.3313C61.7979 5.13077 61.5642 4.94377 61.3198 4.7713L61.1398 4.6413C60.9213 4.49154 60.6943 4.35464 60.4598 4.23129C60.4356 4.21109 60.4087 4.19428 60.3799 4.1813L62.9798 3.95129ZM58.7598 4.29129C60.3901 4.76676 61.7821 5.83755 62.6599 7.29129C63.5425 8.74368 63.8493 10.474 63.5198 12.1413L63.4598 12.4213C63.0395 14.17 61.9426 15.6805 60.4099 16.6213L44.2698 24.9613L30.6398 31.9613L9.52984 42.8813L8.60983 41.3713C11.1098 39.838 13.6098 38.3113 16.1098 36.7913C16.3275 36.6529 16.4833 36.4358 16.5446 36.1853C16.606 35.9348 16.5682 35.6702 16.4391 35.4469C16.31 35.2236 16.0997 35.0589 15.852 34.987C15.6043 34.9151 15.3384 34.9418 15.1098 35.0613L7.59982 39.6313L6.70984 38.1713L38.4698 15.5813L38.5798 15.5113L53.2398 5.00131C54.053 4.50234 54.9622 4.18033 55.9081 4.05627C56.8541 3.93222 57.8155 4.0089 58.7298 4.28131L58.7598 4.29129ZM1.17984 32.0013L3.73984 30.6813L11.3998 33.8713L6.29983 37.6213L6.29983 37.5413L6.24985 37.6013L1.17984 32.0013ZM6.11984 43.9013L4.26983 40.9013L6.15985 38.7113L6.96985 40.0513C6.74043 40.1919 6.57625 40.4178 6.51343 40.6794C6.4506 40.941 6.49426 41.2169 6.63482 41.4463C6.77539 41.6757 7.00136 41.8399 7.26297 41.9027C7.52458 41.9655 7.80043 41.9219 8.02984 41.7813L8.87985 43.1713L6.11984 43.9013ZM14.8799 48.9013L12.5398 50.5713L9.84982 43.5713L9.92984 43.5713L9.92984 43.5013L15.5898 40.6813L14.8799 48.9013ZM35.1098 52.7213C35.0394 52.7616 34.9559 52.7727 34.8774 52.7521C34.7988 52.7315 34.7315 52.681 34.6898 52.6113L32.7898 49.5113C32.7683 49.476 32.7541 49.4367 32.748 49.3958C32.7418 49.3549 32.744 49.3132 32.7542 49.2731C32.7645 49.2331 32.7826 49.1954 32.8076 49.1625C32.8327 49.1295 32.864 49.1019 32.8998 49.0813L34.2198 48.2813L36.4398 51.9113L35.1098 52.7213ZM37.3598 52.1313L34.4498 47.3513L36.3398 46.1913L36.5598 46.6713L38.6698 51.3413L37.3598 52.1313ZM41.0198 54.9513L41.0198 54.8313L39.4498 51.3313L36.8398 45.5713L31.2398 32.4613L42.7598 26.4613L44.1198 25.7513L44.9298 40.3913L45.1398 44.0513L45.7098 54.5113L41.1298 57.7713L41.0198 54.9513Z" fill="#999999"/>
</svg>
