<svg width="18" height="18" viewBox="0 0 18 18" fill="none" xmlns="http://www.w3.org/2000/svg">
<path d="M14.5667 0.933594H2.5C1.12167 0.933594 0 2.05526 0 3.43359V15.5003C0 16.8789 1.12167 18.0003 2.5 18.0003H14.5667C15.9453 18.0003 17.0667 16.8789 17.0667 15.5003V3.43359C17.0667 2.05526 15.9453 0.933594 14.5667 0.933594ZM16.0667 15.5003C16.0667 16.3273 15.3937 17.0003 14.5667 17.0003H2.5C1.673 17.0003 1 16.3273 1 15.5003V3.43359C1 2.60659 1.673 1.93359 2.5 1.93359H14.5667C15.3937 1.93359 16.0667 2.60659 16.0667 3.43359V15.5003Z" fill="white"/>
</svg>
