<svg width="110" height="73" viewBox="0 0 110 73" fill="none" xmlns="http://www.w3.org/2000/svg">
<path d="M2.01441 44.2901L1.80994 43.527C1.79882 43.4856 1.79614 43.4424 1.80205 43.3999C1.80796 43.3575 1.82235 43.3166 1.84436 43.2798C1.86637 43.243 1.89555 43.211 1.93016 43.1857C1.96478 43.1604 2.00414 43.1423 2.04588 43.1325C2.08729 43.1214 2.13051 43.1187 2.17297 43.1247C2.21544 43.1306 2.25629 43.1449 2.29308 43.1669C2.32988 43.1889 2.36189 43.2181 2.38719 43.2527C2.41249 43.2874 2.43058 43.3267 2.44038 43.3685C2.60861 43.9963 2.77425 44.6145 2.93731 45.223C2.9622 45.3053 2.95405 45.394 2.91456 45.4703C2.87507 45.5466 2.80738 45.6045 2.72587 45.6317C2.64205 45.6543 2.55276 45.644 2.4763 45.6029C2.39984 45.5618 2.342 45.493 2.31464 45.4106L2.01441 44.2901ZM1.41736 41.6755C1.24912 41.0477 1.18715 40.3914 1.09619 39.7428C1.09005 39.7008 1.09232 39.658 1.10287 39.6169C1.11343 39.5758 1.13206 39.5372 1.15768 39.5034C1.18329 39.4695 1.21539 39.4411 1.25209 39.4198C1.28879 39.3985 1.32937 39.3847 1.37146 39.3792C1.41345 39.373 1.45625 39.3753 1.49736 39.3859C1.53847 39.3964 1.57707 39.4151 1.61091 39.4407C1.64475 39.4663 1.67316 39.4984 1.69448 39.5351C1.7158 39.5718 1.7296 39.6124 1.73509 39.6544C1.82345 40.2933 1.93115 40.9271 2.05557 41.5459C2.07038 41.6308 2.05144 41.7181 2.00278 41.7892C1.95412 41.8602 1.8796 41.9095 1.79514 41.9263C1.75386 41.9348 1.71132 41.9349 1.66997 41.9269C1.62862 41.9188 1.58927 41.9027 1.55417 41.8794C1.51908 41.8561 1.48893 41.8261 1.46545 41.7911C1.44197 41.7561 1.42562 41.7168 1.41736 41.6755ZM2.9211 47.2876C2.89956 47.2095 2.90749 47.1262 2.9434 47.0536C2.97931 46.9809 3.04067 46.9241 3.11581 46.8938C3.1974 46.8661 3.28655 46.8715 3.36422 46.9087C3.4419 46.946 3.50193 47.0121 3.53153 47.093C3.71183 47.5727 3.8966 48.0304 4.10846 48.512L4.25511 48.8661C4.27286 48.9049 4.28268 48.9469 4.28397 48.9896C4.28526 49.0322 4.278 49.0747 4.26262 49.1145C4.24724 49.1543 4.22405 49.1907 4.19442 49.2214C4.16479 49.2521 4.1293 49.2766 4.09007 49.2934C4.01241 49.326 3.92501 49.3268 3.84682 49.2954C3.76864 49.264 3.70599 49.2031 3.67246 49.1258L3.51615 48.7742C3.30688 48.3023 3.1221 47.8445 2.92887 47.3166L2.9211 47.2876ZM0.826595 37.848L0.81365 37.7997C0.756846 37.1627 0.704539 36.5038 0.674124 35.8494C0.671308 35.7648 0.701115 35.6823 0.757393 35.6191C0.813672 35.5558 0.89209 35.5166 0.976461 35.5096C1.01966 35.5065 1.06304 35.5123 1.10396 35.5265C1.14488 35.5407 1.18247 35.5631 1.21449 35.5922C1.24651 35.6214 1.27227 35.6568 1.29022 35.6962C1.30816 35.7356 1.31791 35.7783 1.31888 35.8216C1.35637 36.4637 1.39385 37.1059 1.46032 37.7404C1.46778 37.8248 1.44144 37.9088 1.38705 37.9738C1.33266 38.0389 1.25466 38.0796 1.17022 38.0872C1.10015 38.0834 1.03329 38.0566 0.97993 38.0111C0.926571 37.9655 0.889665 37.9037 0.874895 37.8351L0.826595 37.848ZM4.47969 50.8247C4.46158 50.7532 4.46869 50.6777 4.49983 50.6109C4.53097 50.5441 4.58423 50.4901 4.65059 50.458C4.688 50.4374 4.72927 50.4247 4.77179 50.4208C4.81432 50.4169 4.8572 50.4218 4.89773 50.4353C4.93827 50.4487 4.9756 50.4704 5.00737 50.4989C5.03914 50.5274 5.06466 50.5622 5.08236 50.6011C5.3658 51.1567 5.67375 51.7264 6.00101 52.2909C6.02172 52.3275 6.03501 52.3679 6.04012 52.4096C6.04523 52.4513 6.04206 52.4937 6.0308 52.5342C6.01954 52.5747 6.00041 52.6126 5.9745 52.6457C5.94859 52.6788 5.91641 52.7065 5.87979 52.7272C5.80471 52.7696 5.71599 52.7809 5.63265 52.7587C5.54932 52.7366 5.47797 52.6826 5.43388 52.6085C5.10662 52.044 4.79609 51.4646 4.50746 50.8897L4.47969 50.8247ZM0.628081 33.9775L0.607379 33.9003C0.611117 33.2574 0.612265 32.6049 0.642391 31.9446C0.645937 31.86 0.682871 31.7802 0.745103 31.7228C0.807335 31.6653 0.889778 31.6349 0.974398 31.6382C1.01672 31.6386 1.05853 31.6476 1.09723 31.6648C1.13592 31.6819 1.17068 31.7068 1.19938 31.7379C1.22809 31.769 1.25012 31.8057 1.26412 31.8456C1.27812 31.8856 1.28379 31.928 1.28078 31.9702C1.26738 32.6157 1.25398 33.2611 1.25731 33.8917C1.25911 33.9341 1.2522 33.9765 1.23697 34.0161C1.22174 34.0557 1.19856 34.0918 1.16882 34.1221C1.13908 34.1524 1.10344 34.1763 1.0641 34.1922C1.02477 34.2082 0.982563 34.2159 0.940127 34.2149C0.87541 34.2062 0.815074 34.1774 0.76771 34.1325C0.720347 34.0875 0.688372 34.0288 0.676366 33.9646L0.628081 33.9775ZM6.40135 54.1714C6.38433 54.1042 6.38889 54.0334 6.41436 53.969C6.43984 53.9046 6.48493 53.8498 6.54327 53.8124C6.61493 53.7673 6.70155 53.7524 6.78415 53.771C6.86676 53.7896 6.93863 53.8402 6.984 53.9117C7.32541 54.4518 7.68613 54.9866 8.06359 55.5067C8.11054 55.578 8.12889 55.6644 8.11503 55.7487C8.10117 55.833 8.05609 55.909 7.98876 55.9615C7.91681 56.0107 7.82833 56.0294 7.74262 56.0136C7.65691 55.9978 7.58096 55.9487 7.53132 55.8771C7.15386 55.357 6.78796 54.8028 6.44655 54.2628L6.40135 54.1714ZM0.766429 30.0892L0.737962 29.983C0.792587 29.3368 0.856858 28.6881 0.933386 28.0464C0.938016 28.0041 0.951029 27.9632 0.971675 27.926C0.99232 27.8888 1.02017 27.856 1.05361 27.8297C1.08705 27.8034 1.1254 27.784 1.16641 27.7727C1.20743 27.7614 1.2503 27.7584 1.2925 27.7639C1.3348 27.7685 1.37574 27.7815 1.41294 27.8021C1.45015 27.8228 1.48286 27.8506 1.50917 27.884C1.53548 27.9175 1.55486 27.9558 1.56617 27.9969C1.57749 28.0379 1.58052 28.0807 1.57506 28.1229C1.49594 28.755 1.42907 29.394 1.38411 30.0376C1.37641 30.1219 1.33556 30.1998 1.27054 30.2541C1.20552 30.3084 1.12163 30.3347 1.03725 30.3272C0.983497 30.3118 0.934918 30.2822 0.896654 30.2414C0.85839 30.2006 0.831854 30.1502 0.819887 30.0956L0.766429 30.0892ZM8.64487 57.3283C8.62956 57.2675 8.63135 57.2037 8.65003 57.1439C8.66872 57.0841 8.70357 57.0306 8.75074 56.9893C8.78576 56.9481 8.83039 56.916 8.8807 56.8961C8.93101 56.8761 8.98545 56.8689 9.03923 56.8749C9.09302 56.8809 9.14449 56.9001 9.18912 56.9308C9.23375 56.9614 9.27015 57.0025 9.29513 57.0505C9.68673 57.5461 10.0906 58.0487 10.5111 58.5364C10.539 58.5683 10.5603 58.6055 10.5737 58.6456C10.5871 58.6858 10.5924 58.7283 10.5892 58.7705C10.5861 58.8128 10.5746 58.854 10.5555 58.8918C10.5363 58.9295 10.5098 58.9631 10.4775 58.9906C10.412 59.0444 10.3283 59.071 10.2437 59.0647C10.1592 59.0585 10.0803 59.0199 10.0234 58.957C9.60022 58.4596 9.18412 57.9499 8.78027 57.4473L8.64487 57.3283ZM1.23527 26.2366C1.21501 26.1977 1.20353 26.1548 1.20162 26.111C1.30971 25.4713 1.42747 24.8289 1.55748 24.1936C1.56513 24.1519 1.58098 24.1122 1.60411 24.0767C1.62724 24.0412 1.65718 24.0107 1.69221 23.9868C1.72723 23.963 1.76664 23.9464 1.80815 23.9379C1.84966 23.9294 1.89244 23.9292 1.934 23.9374C2.01936 23.9546 2.09445 24.0049 2.14293 24.0772C2.1914 24.1496 2.20931 24.2381 2.19277 24.3236C2.06018 24.9492 1.93984 25.5819 1.83881 26.2095C1.83303 26.2512 1.81908 26.2913 1.79776 26.3276C1.77645 26.3639 1.74819 26.3956 1.71459 26.421C1.68099 26.4463 1.64271 26.4648 1.60197 26.4753C1.56122 26.4859 1.5188 26.4883 1.47712 26.4824C1.4288 26.4606 1.38645 26.4274 1.35366 26.3857C1.32087 26.3441 1.2986 26.2951 1.28875 26.243L1.23527 26.2366ZM11.1806 60.262C11.1654 60.2074 11.165 60.1497 11.1794 60.0949C11.1939 60.0401 11.2226 59.9902 11.2626 59.9501C11.2932 59.9202 11.3295 59.8967 11.3693 59.8811C11.4091 59.8655 11.4517 59.858 11.4944 59.8591C11.5372 59.8602 11.5793 59.8698 11.6183 59.8875C11.6572 59.9051 11.6923 59.9304 11.7213 59.9618C12.1657 60.4225 12.6197 60.8806 13.1169 61.3064C13.1768 61.368 13.2111 61.45 13.213 61.536C13.2149 61.6219 13.1842 61.7053 13.1271 61.7695C13.0978 61.7999 13.0629 61.8242 13.0243 61.841C12.9856 61.8578 12.9441 61.8668 12.9019 61.8676C12.8598 61.8683 12.8179 61.8606 12.7787 61.8451C12.7396 61.8296 12.7038 61.8065 12.6736 61.7772C12.2028 61.3339 11.7462 60.8661 11.2677 60.3939C11.2367 60.3603 11.2122 60.3212 11.1954 60.2787L11.1806 60.262ZM2.0108 22.4468C1.98278 22.4001 1.96843 22.3466 1.96939 22.2922C2.13096 21.6588 2.29512 21.0351 2.49791 20.401C2.52493 20.3194 2.58185 20.251 2.65721 20.2097C2.73257 20.1684 2.82079 20.1572 2.90411 20.1783C2.9857 20.2053 3.05404 20.2622 3.09536 20.3376C3.13669 20.4129 3.14792 20.5011 3.12683 20.5844C2.94077 21.2037 2.77401 21.8178 2.59054 22.4467C2.5811 22.4884 2.56341 22.5278 2.53848 22.5626C2.51355 22.5973 2.48193 22.6268 2.44544 22.6491C2.40895 22.6714 2.36837 22.6862 2.32607 22.6926C2.28378 22.6989 2.24062 22.6967 2.19918 22.6862C2.16547 22.6558 2.1386 22.6187 2.12034 22.5771C2.10207 22.5356 2.09284 22.4907 2.09325 22.4454L2.0108 22.4468ZM13.9691 62.9415C13.9562 62.8893 13.9563 62.8346 13.9694 62.7824C13.9825 62.7302 14.0081 62.682 14.0441 62.6419C14.103 62.5807 14.1826 62.5437 14.2674 62.5382C14.3521 62.5328 14.4358 62.5592 14.5021 62.6124C14.9773 63.0337 15.4815 63.4473 15.9806 63.8416C16.0453 63.8964 16.0865 63.9739 16.0956 64.0582C16.1047 64.1425 16.081 64.2271 16.0294 64.2944C16.0038 64.3279 15.9718 64.356 15.9353 64.3771C15.8987 64.3982 15.8584 64.4119 15.8165 64.4173C15.7747 64.4227 15.7322 64.4198 15.6914 64.4088C15.6507 64.3977 15.6126 64.3787 15.5792 64.3529C15.0679 63.9515 14.5611 63.5283 14.0736 63.0999C14.03 63.0629 13.9987 63.0135 13.9839 62.9583L13.9691 62.9415ZM3.151 18.7041C3.13555 18.6413 3.13952 18.5753 3.16236 18.5147C3.37034 17.9 3.60021 17.2897 3.83267 16.689C3.84736 16.648 3.87027 16.6104 3.89999 16.5786C3.92972 16.5467 3.96565 16.5213 4.00555 16.5038C4.04545 16.4863 4.0885 16.4772 4.13206 16.477C4.17562 16.4767 4.21879 16.4853 4.25889 16.5024C4.29795 16.5183 4.33345 16.5418 4.36339 16.5716C4.39332 16.6013 4.41708 16.6367 4.43329 16.6756C4.4495 16.7146 4.45785 16.7564 4.45786 16.7986C4.45786 16.8408 4.44952 16.8825 4.43331 16.9215C4.20085 17.5221 3.96768 18.0815 3.77972 18.7324C3.74907 18.8118 3.68886 18.8764 3.61171 18.9125C3.53456 18.9486 3.44643 18.9535 3.36577 18.9261C3.31839 18.9105 3.27547 18.8837 3.24066 18.848C3.20585 18.8122 3.18019 18.7686 3.16583 18.7209L3.151 18.7041ZM17.0633 65.3322C17.0515 65.2858 17.05 65.2373 17.0589 65.1903C17.0677 65.1432 17.0867 65.0986 17.1145 65.0596C17.1394 65.0258 17.1707 64.9971 17.2067 64.9753C17.2427 64.9536 17.2826 64.9391 17.3242 64.9328C17.3657 64.9265 17.4081 64.9284 17.449 64.9385C17.4898 64.9485 17.5282 64.9665 17.5621 64.9915C18.0727 65.3516 18.6226 65.7426 19.1544 66.066C19.2282 66.11 19.2819 66.181 19.3041 66.2639C19.3264 66.3469 19.3154 66.4353 19.2735 66.5103C19.2527 66.5478 19.2245 66.5807 19.1907 66.6071C19.1568 66.6335 19.118 66.6529 19.0766 66.664C19.0351 66.6751 18.9919 66.6777 18.9494 66.6718C18.9068 66.6658 18.866 66.6514 18.8292 66.6293C18.2799 66.2796 17.73 65.8886 17.2123 65.5407C17.1733 65.5168 17.1397 65.4851 17.1136 65.4475C17.0875 65.41 17.0695 65.3674 17.0607 65.3225L17.0633 65.3322ZM4.57477 15.0926C4.55507 15.0225 4.56067 14.9476 4.59061 14.8812C4.85464 14.2825 5.14318 13.6979 5.42205 13.1159C5.44288 13.0784 5.47106 13.0455 5.50489 13.0191C5.53872 12.9927 5.57752 12.9733 5.61897 12.9622C5.66042 12.9511 5.70369 12.9484 5.74619 12.9544C5.7887 12.9604 5.82956 12.9748 5.86636 12.9969C5.93908 13.0394 5.99211 13.1089 6.01392 13.1903C6.03572 13.2716 6.02455 13.3583 5.98284 13.4315C5.70138 14.0039 5.43028 14.6149 5.15848 15.1846C5.11594 15.2573 5.04646 15.3104 4.96508 15.3322C4.88371 15.354 4.79701 15.3428 4.72381 15.3011C4.68821 15.281 4.65708 15.2539 4.63234 15.2213C4.60759 15.1888 4.58977 15.1515 4.57994 15.1119L4.57477 15.0926ZM20.3613 67.4404C20.3444 67.3559 20.3575 67.2682 20.3984 67.1924C20.4441 67.1205 20.5151 67.0684 20.5973 67.0463C20.6796 67.0243 20.7672 67.0339 20.8427 67.0733C21.3938 67.3915 21.9643 67.7045 22.5296 67.9982C22.6023 68.0408 22.6553 68.1103 22.6771 68.1916C22.6989 68.273 22.6877 68.3597 22.646 68.4329C22.6018 68.5037 22.5323 68.5551 22.4516 68.5767C22.371 68.5983 22.2851 68.5886 22.2114 68.5494C21.6242 68.2512 21.0151 67.9485 20.4903 67.6129C20.4298 67.5709 20.3845 67.5104 20.3613 67.4404ZM6.35043 11.6352C6.32944 11.5527 6.33918 11.4655 6.37784 11.3897C6.70052 10.8167 7.03544 10.2507 7.37554 9.70405C7.41954 9.63028 7.49059 9.57657 7.57355 9.55434C7.65652 9.53211 7.74489 9.5431 7.81988 9.58499C7.8926 9.62752 7.94561 9.69702 7.96741 9.7784C7.98922 9.85978 7.97806 9.94647 7.93635 10.0197C7.6059 10.5637 7.27805 11.1175 6.96244 11.6783C6.91844 11.752 6.84739 11.8057 6.76443 11.828C6.68146 11.8502 6.5931 11.8392 6.51811 11.7973C6.47465 11.7888 6.43361 11.7708 6.39794 11.7446C6.36227 11.7183 6.33284 11.6845 6.31179 11.6455L6.35043 11.6352ZM23.8451 69.1987C23.8239 69.1257 23.8286 69.0476 23.8583 68.9777C23.9023 68.9039 23.9734 68.8502 24.0563 68.828C24.1393 68.8058 24.2277 68.8168 24.3027 68.8587C24.8795 69.1182 25.4757 69.3726 26.0737 69.5954C26.152 69.6278 26.2148 69.6892 26.2491 69.7668C26.2834 69.8444 26.2865 69.9321 26.2578 70.0119C26.2439 70.0524 26.2218 70.0896 26.1929 70.1211C26.164 70.1526 26.1289 70.1778 26.0898 70.1951C26.0506 70.2124 26.0084 70.2214 25.9656 70.2216C25.9228 70.2217 25.8805 70.213 25.8412 70.196C25.2309 69.9661 24.6734 69.7014 24.036 69.4477C23.9758 69.437 23.9196 69.4097 23.874 69.369C23.8283 69.3282 23.7949 69.2755 23.7775 69.2168L23.8451 69.1987ZM8.43677 8.33267C8.42184 8.28759 8.41782 8.23962 8.42504 8.19269C8.43227 8.14576 8.45052 8.10121 8.47832 8.06271C8.85257 7.52762 9.22943 7.00216 9.62818 6.48121C9.65381 6.4477 9.68582 6.4196 9.72236 6.3985C9.7589 6.37741 9.79925 6.36375 9.8411 6.35831C9.88294 6.35288 9.92544 6.35577 9.96617 6.36682C10.0069 6.37787 10.045 6.39685 10.0784 6.42269C10.147 6.47589 10.1919 6.55401 10.2034 6.64009C10.2148 6.72617 10.1918 6.8133 10.1395 6.88257C9.75487 7.37903 9.37801 7.90445 9.01082 8.4273C8.96682 8.50107 8.89579 8.55477 8.81282 8.577C8.72986 8.59923 8.64149 8.58824 8.5665 8.54636C8.522 8.52896 8.48152 8.50264 8.44758 8.469C8.41364 8.43537 8.38696 8.39513 8.36916 8.35078L8.43677 8.33267ZM27.4585 70.5909C27.4392 70.5331 27.4407 70.4704 27.4628 70.4137C27.4897 70.3319 27.5475 70.2638 27.6239 70.224C27.7002 70.1842 27.7891 70.1758 27.8716 70.2007C28.4741 70.4016 29.0934 70.5876 29.7049 70.7447C29.746 70.7552 29.7847 70.7738 29.8185 70.7993C29.8524 70.8249 29.8809 70.8569 29.9023 70.8936C29.9237 70.9302 29.9375 70.9708 29.9431 71.0128C29.9487 71.0549 29.9458 71.0977 29.9347 71.1387C29.9112 71.2203 29.8572 71.2898 29.7838 71.3326C29.7104 71.3754 29.6234 71.3882 29.5407 71.3685C28.9144 71.1946 28.2855 71.0112 27.6688 70.8348C27.6095 70.8233 27.5547 70.7953 27.5106 70.7539C27.4666 70.7126 27.4351 70.6597 27.4199 70.6012L27.4585 70.5909ZM10.7914 5.25849C10.7767 5.20744 10.7751 5.15358 10.7865 5.10173C10.7979 5.04987 10.822 5.00167 10.8567 4.96146C11.2729 4.4669 11.7109 3.97681 12.1542 3.50604C12.2118 3.44418 12.2916 3.40765 12.3761 3.40441C12.4606 3.40117 12.5429 3.4315 12.6051 3.48876C12.6679 3.54775 12.7051 3.62895 12.7088 3.715C12.7125 3.80105 12.6824 3.88514 12.625 3.94932C12.1888 4.40784 11.7604 4.89532 11.3416 5.38023C11.3145 5.41307 11.2812 5.44019 11.2435 5.45998C11.2058 5.47977 11.1646 5.49184 11.1222 5.49549C11.0797 5.49914 11.037 5.49428 10.9965 5.48123C10.956 5.46817 10.9185 5.44717 10.8862 5.41944C10.8203 5.38724 10.7641 5.3379 10.7237 5.27661L10.7914 5.25849ZM31.1965 71.5977C31.1706 71.5539 31.1572 71.5038 31.1577 71.4528C31.1753 71.3699 31.2251 71.2974 31.2962 71.2511C31.3673 71.2049 31.4538 71.1888 31.5368 71.2063C32.1721 71.3363 32.8048 71.4567 33.4297 71.548C33.4714 71.5536 33.5115 71.5677 33.5475 71.5893C33.5836 71.6109 33.6149 71.6396 33.6395 71.6737C33.6642 71.7077 33.6816 71.7465 33.6908 71.7875C33.7 71.8285 33.7007 71.871 33.693 71.9123C33.6872 71.954 33.6732 71.9941 33.6519 72.0304C33.6306 72.0667 33.6024 72.0984 33.5688 72.1238C33.5352 72.1491 33.4969 72.1676 33.4561 72.1782C33.4154 72.1887 33.373 72.1911 33.3313 72.1852C32.6941 72.0868 32.0517 71.969 31.4068 71.8416C31.3436 71.8347 31.2838 71.8097 31.2345 71.7697C31.1853 71.7297 31.1486 71.6762 31.1289 71.6158L31.1965 71.5977ZM13.4387 2.42684C13.4245 2.37218 13.4246 2.31479 13.439 2.26018C13.4534 2.20558 13.4815 2.15562 13.5208 2.115C13.9952 1.67039 14.4778 1.23048 14.9685 0.795299C15.0004 0.767432 15.0375 0.746143 15.0777 0.732735C15.1179 0.719326 15.1604 0.714087 15.2026 0.717212C15.2449 0.720338 15.2861 0.731778 15.3238 0.750954C15.3616 0.77013 15.3952 0.796657 15.4227 0.828918C15.4506 0.860826 15.4718 0.897911 15.4852 0.938099C15.4986 0.978286 15.5039 1.02077 15.5008 1.06302C15.4977 1.10526 15.4862 1.14645 15.467 1.18423C15.4478 1.222 15.4214 1.25562 15.3891 1.28308C14.911 1.70107 14.4284 2.14092 13.9774 2.5827C13.9468 2.6126 13.9105 2.63609 13.8707 2.65173C13.8309 2.66736 13.7883 2.67484 13.7456 2.67375C13.7028 2.67266 13.6607 2.66302 13.6218 2.64538C13.5828 2.62774 13.5477 2.60242 13.5187 2.57101C13.4565 2.5472 13.4043 2.5027 13.3711 2.44495L13.4387 2.42684ZM35.0371 72.2147L35.0086 72.1085C35.0181 72.0229 35.0607 71.9444 35.1274 71.8898C35.194 71.8352 35.2793 71.8088 35.3651 71.8163C35.8438 71.864 36.3295 71.8995 36.8101 71.9157L37.281 71.9344C37.3656 71.938 37.4453 71.9749 37.5027 72.0371C37.5602 72.0994 37.5906 72.1818 37.5873 72.2664C37.5868 72.3089 37.5779 72.3509 37.5609 72.3899C37.544 72.4289 37.5196 72.4641 37.4889 72.4935C37.4582 72.5229 37.422 72.546 37.3823 72.5612C37.3427 72.5765 37.3004 72.5837 37.2579 72.5825L36.787 72.5637C36.2845 72.5431 35.7988 72.5076 35.3008 72.465C35.2193 72.4673 35.1397 72.4402 35.0765 72.3888C35.0133 72.3373 34.9707 72.2648 34.9565 72.1846L35.0371 72.2147ZM38.9131 72.346L38.8924 72.2687C38.8916 72.1833 38.9239 72.101 38.9826 72.0389C39.0413 71.9769 39.1217 71.94 39.207 71.936C39.835 71.923 40.4798 71.8952 41.129 71.8454C41.1706 71.8417 41.2124 71.8464 41.2521 71.8592C41.2917 71.872 41.3284 71.8927 41.3599 71.9201C41.3914 71.9474 41.417 71.9808 41.4353 72.0183C41.4536 72.0557 41.4641 72.0965 41.4663 72.1381C41.4738 72.2226 41.4474 72.3065 41.393 72.3716C41.3386 72.4366 41.2606 72.4774 41.1762 72.485C40.5173 72.5373 39.8629 72.5678 39.2252 72.5833C39.1817 72.5924 39.137 72.5926 39.0935 72.5839C39.05 72.5753 39.0087 72.558 38.972 72.533C38.9354 72.508 38.9041 72.4759 38.8802 72.4386C38.8562 72.4013 38.84 72.3596 38.8326 72.3158L38.9131 72.346ZM42.7796 72.0554L42.7667 72.0071C42.7571 71.9234 42.7809 71.8393 42.8329 71.773C42.8849 71.7067 42.961 71.6637 43.0445 71.6531C43.7109 71.5643 44.3498 71.4759 44.9612 71.388C45.0025 71.3807 45.0448 71.3819 45.0856 71.3915C45.1264 71.4011 45.1648 71.4188 45.1985 71.4436C45.2323 71.4684 45.2606 71.4999 45.2819 71.5359C45.3032 71.572 45.3169 71.612 45.3223 71.6536C45.3295 71.6952 45.3285 71.7379 45.3192 71.7791C45.3099 71.8203 45.2925 71.8593 45.268 71.8938C45.2436 71.9282 45.2125 71.9575 45.1767 71.9799C45.1409 72.0023 45.101 72.0174 45.0593 72.0243C44.4133 72.1249 43.7744 72.2133 43.1232 72.2946C43.0777 72.3128 43.0285 72.3198 42.9796 72.3153C42.9308 72.3107 42.8837 72.2946 42.8423 72.2683C42.8009 72.242 42.7663 72.2063 42.7414 72.164C42.7165 72.1217 42.702 72.0742 42.6991 72.0252L42.7796 72.0554ZM46.6046 71.455C46.5973 71.4133 46.5984 71.3707 46.6077 71.3295C46.617 71.2882 46.6344 71.2492 46.6588 71.2148C46.6833 71.1803 46.7143 71.151 46.7501 71.1286C46.786 71.1062 46.8259 71.0911 46.8676 71.0842C47.4858 70.9186 48.1247 70.8303 48.7506 70.6936C48.7924 70.6837 48.8357 70.6823 48.8781 70.6895C48.9204 70.6967 48.9608 70.7123 48.997 70.7355C49.0331 70.7587 49.0642 70.7888 49.0885 70.8243C49.1127 70.8597 49.1296 70.8997 49.1381 70.9418C49.148 70.9835 49.1493 71.0269 49.1421 71.0692C49.1349 71.1115 49.1193 71.1519 49.0961 71.1881C49.073 71.2242 49.0428 71.2554 49.0073 71.2796C48.9719 71.3039 48.932 71.3207 48.8899 71.3292C48.262 71.4974 47.6161 71.5981 46.9849 71.7154C46.9359 71.7395 46.8815 71.7505 46.827 71.7476C46.7724 71.7447 46.7195 71.7279 46.6733 71.6988C46.6271 71.6696 46.5891 71.6292 46.563 71.5812C46.5369 71.5333 46.5234 71.4794 46.524 71.4248L46.6046 71.455ZM50.3919 70.6369C50.3808 70.5959 50.3783 70.5531 50.3844 70.5111C50.3906 70.4691 50.4053 70.4288 50.4276 70.3927C50.45 70.3566 50.4795 70.3255 50.5144 70.3013C50.5493 70.2771 50.5888 70.2603 50.6304 70.252C51.2582 70.0838 51.8764 69.9181 52.4946 69.7525C52.5766 69.7305 52.6639 69.742 52.7374 69.7845C52.811 69.8269 52.8646 69.8968 52.8865 69.9787C52.8962 70.0197 52.8976 70.0621 52.8909 70.1036C52.8841 70.1451 52.8692 70.1849 52.847 70.2206C52.8249 70.2563 52.7959 70.2874 52.7618 70.3119C52.7276 70.3365 52.689 70.354 52.648 70.3636C52.0298 70.5292 51.402 70.6975 50.7741 70.8657C50.7274 70.8892 50.6755 70.901 50.6232 70.8998C50.5708 70.8987 50.5196 70.8847 50.4739 70.8591C50.4282 70.8336 50.3895 70.7972 50.3612 70.7532C50.3328 70.7092 50.3157 70.6588 50.3113 70.6067L50.3919 70.6369ZM54.1552 69.6906C54.1333 69.6093 54.1432 69.5228 54.183 69.4486C54.2228 69.3744 54.2894 69.3183 54.3692 69.2916C54.9584 69.1337 55.5766 68.9681 56.1979 68.6981C56.2795 68.6705 56.3686 68.6758 56.4463 68.713C56.524 68.7503 56.584 68.8164 56.6136 68.8973C56.6387 68.9789 56.6321 69.067 56.5952 69.144C56.5583 69.2211 56.4938 69.2814 56.4144 69.313C55.7731 69.5469 55.1434 69.7467 54.5085 69.9272C54.4265 69.9492 54.3391 69.9377 54.2656 69.8952C54.1921 69.8528 54.1385 69.7829 54.1166 69.7009L54.1552 69.6906ZM57.8008 68.3825C57.78 68.3069 57.7875 68.2263 57.8221 68.156C57.8567 68.0857 57.9159 68.0305 57.9885 68.0009C58.5641 67.7535 59.1467 67.4938 59.7435 67.2097C59.8215 67.1735 59.9106 67.1693 59.9917 67.1978C60.0729 67.2264 60.1396 67.2854 60.1778 67.3625C60.214 67.4405 60.2182 67.5296 60.1897 67.6107C60.1612 67.6918 60.1021 67.7586 60.0251 67.7968C59.4186 68.0836 58.8263 68.3458 58.241 68.5958C58.1608 68.6291 58.0707 68.6295 57.9902 68.5967C57.9098 68.564 57.8454 68.5009 57.8112 68.4211L57.8008 68.3825ZM61.3121 66.7273C61.2919 66.6558 61.2981 66.5795 61.3295 66.5122C61.3608 66.4449 61.4153 66.3911 61.483 66.3605C62.036 66.0674 62.6057 65.7595 63.1728 65.4419C63.2493 65.3995 63.3395 65.3892 63.4236 65.4132C63.5077 65.4373 63.5788 65.4937 63.6213 65.5702C63.6605 65.6461 63.6688 65.7342 63.6444 65.816C63.62 65.8978 63.5648 65.967 63.4904 66.009C62.9136 66.3292 62.3439 66.6371 61.7716 66.9354C61.695 66.9715 61.6075 66.9768 61.5271 66.9501C61.4468 66.9235 61.3797 66.867 61.3399 66.7923L61.3121 66.7273ZM64.6981 64.8365C64.6814 64.7679 64.6871 64.6958 64.7144 64.6308C64.7417 64.5657 64.7891 64.5111 64.8497 64.4749C65.3949 64.1528 65.9446 63.8089 66.4943 63.4649C66.5293 63.4411 66.5689 63.4249 66.6105 63.417C66.6521 63.4092 66.6948 63.4099 66.7361 63.4192C66.7774 63.4285 66.8164 63.4462 66.8506 63.4711C66.8848 63.4961 66.9135 63.5277 66.935 63.5642C66.9587 63.5992 66.975 63.6388 66.9829 63.6804C66.9907 63.722 66.99 63.7647 66.9807 63.806C66.9714 63.8473 66.9537 63.8862 66.9288 63.9205C66.9038 63.9547 66.8722 63.9834 66.8357 64.0049C66.2886 64.3585 65.7389 64.7026 65.184 65.0272C65.1479 65.0496 65.1076 65.0644 65.0656 65.0711C65.0237 65.0777 64.9808 65.0758 64.9395 65.0657C64.8982 65.0555 64.8594 65.0373 64.8253 65.012C64.7911 64.9866 64.7624 64.9548 64.7407 64.9183L64.6981 64.8365ZM67.9692 62.7487C67.9503 62.683 67.9529 62.6129 67.9767 62.5487C68.0005 62.4846 68.0442 62.4298 68.1015 62.3923C68.6363 62.0316 69.1589 61.6638 69.679 61.2864C69.7128 61.2605 69.7514 61.2417 69.7926 61.231C69.8338 61.2203 69.8767 61.2179 69.9188 61.224C69.9609 61.23 70.0014 61.2444 70.0379 61.2663C70.0743 61.2882 70.1061 61.3172 70.1312 61.3515C70.1806 61.4221 70.2004 61.5092 70.1864 61.5942C70.1724 61.6792 70.1258 61.7553 70.0564 61.8064C69.5364 62.1839 69.0067 62.5639 68.4622 62.9272C68.3929 62.9758 68.307 62.995 68.2236 62.9805C68.1401 62.966 68.0658 62.919 68.017 62.8498L67.9692 62.7487ZM71.1035 60.4595C71.0876 60.3975 71.09 60.3322 71.1105 60.2715C71.131 60.2109 71.1687 60.1575 71.219 60.1179C71.7339 59.7212 72.2365 59.3173 72.7172 58.909C72.7491 58.8799 72.7868 58.8579 72.8278 58.8442C72.8688 58.8305 72.9121 58.8255 72.9551 58.8296C72.9982 58.8337 73.0398 58.8467 73.0775 58.8678C73.1152 58.8889 73.148 58.9177 73.174 58.9523C73.2015 58.9835 73.2224 59.02 73.2355 59.0595C73.2486 59.099 73.2536 59.1407 73.2502 59.1822C73.2468 59.2237 73.2351 59.2641 73.2158 59.3009C73.1965 59.3378 73.17 59.3704 73.1378 59.3968C72.6403 59.82 72.1377 60.2238 71.6158 60.6328C71.5827 60.6587 71.5447 60.6779 71.5042 60.6891C71.4636 60.7004 71.4212 60.7035 71.3795 60.6983C71.3377 60.6932 71.2973 60.6798 71.2607 60.6591C71.2241 60.6383 71.192 60.6105 71.1661 60.5773L71.1035 60.4595ZM71.3342 51.3908C71.166 50.7629 71.0821 50.1021 70.9937 49.4632C70.9861 49.4211 70.9873 49.3777 70.9973 49.3361C71.0073 49.2944 71.0257 49.2552 71.0516 49.221C71.0775 49.1869 71.1102 49.1584 71.1476 49.1375C71.185 49.1166 71.2263 49.1037 71.269 49.0996C71.311 49.0934 71.3538 49.0957 71.3949 49.1063C71.436 49.1168 71.4746 49.1354 71.5084 49.1611C71.5423 49.1867 71.5707 49.2188 71.592 49.2555C71.6133 49.2922 71.6271 49.3328 71.6326 49.3749C71.7158 49.9944 71.8357 50.6352 71.9698 51.2515C71.9797 51.2933 71.9811 51.3366 71.9739 51.3789C71.9667 51.4213 71.9511 51.4617 71.9279 51.4979C71.9047 51.534 71.8745 51.5651 71.8391 51.5894C71.8037 51.6136 71.7637 51.6305 71.7216 51.639C71.673 51.6615 71.6196 51.6718 71.566 51.6691C71.5124 51.6663 71.4604 51.6505 71.4143 51.6231C71.3682 51.5957 71.3295 51.5575 71.3015 51.5117C71.2735 51.466 71.2571 51.4141 71.2537 51.3606L71.3342 51.3908ZM71.8363 53.2647C71.8121 53.185 71.8199 53.099 71.8581 53.025C71.8962 52.951 71.9617 52.8948 72.0407 52.8683C72.1229 52.8434 72.2116 52.8516 72.2879 52.891C72.3642 52.9305 72.4222 52.9982 72.4493 53.0797C72.6176 53.7076 72.8702 54.3025 73.115 54.8684C73.1457 54.9488 73.1448 55.0379 73.1123 55.1177C73.0799 55.1975 73.0184 55.262 72.9403 55.2982C72.9011 55.3145 72.859 55.3229 72.8166 55.3228C72.7741 55.3226 72.7322 55.3141 72.693 55.2976C72.6539 55.2811 72.6185 55.257 72.5888 55.2266C72.5591 55.1963 72.5357 55.1604 72.5201 55.121C72.2701 54.5357 72.0413 53.9137 71.8286 53.2357L71.8363 53.2647ZM70.8137 47.5548L70.7955 47.4872C70.7626 46.8299 70.7693 46.1712 70.8157 45.5147C70.8211 45.4289 70.8599 45.3485 70.9237 45.2908C70.9876 45.2331 71.0714 45.2026 71.1574 45.2058C71.1998 45.2084 71.2412 45.2194 71.2793 45.2382C71.3173 45.257 71.3513 45.2832 71.3792 45.3152C71.407 45.3473 71.4282 45.3845 71.4415 45.4249C71.4548 45.4652 71.46 45.5077 71.4567 45.5501C71.413 46.1856 71.4075 46.8232 71.4403 47.4594C71.442 47.502 71.4352 47.5445 71.4202 47.5845C71.4052 47.6244 71.3824 47.661 71.3531 47.692C71.3238 47.723 71.2886 47.7478 71.2495 47.765C71.2105 47.7822 71.1684 47.7914 71.1257 47.7921C71.0827 47.8012 71.0382 47.8013 70.9952 47.7924C70.9521 47.7835 70.9113 47.7658 70.8754 47.7405C70.8395 47.7151 70.8092 47.6827 70.7863 47.6451C70.7635 47.6075 70.7487 47.5656 70.7428 47.522L70.8137 47.5548ZM73.3659 56.8096C73.3475 56.741 73.3524 56.6683 73.3799 56.6029C73.4073 56.5374 73.4557 56.483 73.5175 56.448C73.592 56.4088 73.6786 56.3995 73.7597 56.422C73.8408 56.4446 73.9102 56.4972 73.9538 56.5692C74.1113 56.848 74.2881 57.1215 74.4597 57.3758C74.8323 57.0275 75.2023 56.6695 75.5529 56.3168C75.6147 56.2551 75.6983 56.2204 75.7856 56.2203C75.8729 56.2202 75.9567 56.2547 76.0186 56.3162C76.0749 56.3789 76.1058 56.4603 76.1054 56.5446C76.105 56.6289 76.0734 56.71 76.0166 56.7723C75.6396 57.1425 75.2458 57.5275 74.8301 57.908L75.0133 58.1281C75.0664 58.1963 75.0907 58.2827 75.0808 58.3686C75.0709 58.4545 75.0277 58.5331 74.9604 58.5875C74.9273 58.6134 74.8893 58.6325 74.8488 58.6438C74.8082 58.655 74.7658 58.6582 74.7241 58.653C74.6823 58.6479 74.6419 58.6345 74.6053 58.6137C74.5687 58.593 74.5366 58.5652 74.5107 58.532L74.2159 58.1658L74.1469 58.1015C74.119 58.0512 74.1039 57.9948 74.1029 57.9373C73.8693 57.6064 73.6499 57.2511 73.4375 56.8836L73.3659 56.8096ZM71.1053 43.6979C71.0826 43.6527 71.0694 43.6034 71.0665 43.553C71.2074 42.8917 71.4365 42.2523 71.7477 41.6519C71.7917 41.5782 71.8627 41.5245 71.9457 41.5022C72.0287 41.48 72.117 41.491 72.192 41.5329C72.2295 41.5537 72.2625 41.5819 72.2889 41.6157C72.3153 41.6495 72.3346 41.6883 72.3457 41.7298C72.3568 41.7712 72.3595 41.8145 72.3535 41.857C72.3476 41.8995 72.3332 41.9404 72.3111 41.9772C72.0329 42.5292 71.8244 43.1137 71.6903 43.7171C71.6817 43.7583 71.6649 43.7972 71.6408 43.8317C71.6167 43.8661 71.5859 43.8953 71.5502 43.9174C71.5145 43.9396 71.4747 43.9543 71.4331 43.9606C71.3916 43.9668 71.3492 43.9646 71.3086 43.954C71.2369 43.9439 71.1709 43.9099 71.1211 43.8574C71.0713 43.8049 71.0408 43.7371 71.0344 43.6651L71.1053 43.6979ZM75.8102 59.7884C75.7967 59.7397 75.795 59.6886 75.8051 59.6391C75.8153 59.5896 75.837 59.5432 75.8685 59.5037C75.9232 59.4389 76.0008 59.3977 76.0851 59.3886C76.1694 59.3795 76.254 59.4032 76.3213 59.4548C76.6765 59.7421 77.065 59.9855 77.4784 60.18C77.6202 60.2456 77.7646 60.3208 77.916 60.3837C77.9868 60.428 78.0382 60.4974 78.0598 60.5781C78.0814 60.6588 78.0717 60.7446 78.0325 60.8184C78.0116 60.8559 77.9835 60.8888 77.9497 60.9153C77.9158 60.9417 77.877 60.961 77.8356 60.9721C77.7941 60.9832 77.7508 60.9859 77.7083 60.9799C77.6658 60.974 77.625 60.9595 77.5882 60.9374C77.4367 60.8745 77.2923 60.7993 77.1383 60.7267C76.6937 60.4993 76.2738 60.2268 75.8851 59.9133C75.8216 59.8768 75.7707 59.8218 75.7393 59.7557L75.8102 59.7884ZM76.8128 55.2234C76.7982 55.1723 76.7966 55.1185 76.808 55.0666C76.8194 55.0148 76.8435 54.9666 76.8782 54.9264C77.3234 54.424 77.7395 53.9295 78.1074 53.4478C78.1635 53.3821 78.2425 53.3402 78.3284 53.3306C78.4143 53.3211 78.5007 53.3446 78.5698 53.3964C78.603 53.4227 78.6306 53.4554 78.651 53.4925C78.6715 53.5297 78.6843 53.5704 78.6889 53.6126C78.6934 53.6547 78.6896 53.6973 78.6775 53.7379C78.6655 53.7785 78.6455 53.8164 78.6187 53.8492C78.2437 54.3431 77.8495 54.8421 77.3657 55.3548C77.3067 55.4176 77.2255 55.4548 77.1395 55.4585C77.0534 55.4622 76.9693 55.4321 76.9051 55.3747C76.8649 55.3598 76.8289 55.3353 76.8004 55.3032C76.7719 55.2711 76.7519 55.2324 76.742 55.1906L76.8128 55.2234ZM73.0449 40.4658C73.0265 40.3972 73.0314 40.3245 73.0588 40.259C73.0863 40.1936 73.1347 40.1391 73.1965 40.1042C73.4049 39.9862 73.6276 39.8952 73.859 39.8335C74.3262 39.7151 74.8138 39.7011 75.2871 39.7925C75.3287 39.8002 75.3685 39.816 75.4039 39.8391C75.4394 39.8623 75.47 39.8922 75.4938 39.9272C75.5177 39.9623 75.5343 40.0017 75.5428 40.0432C75.5513 40.0847 75.5514 40.1275 75.5432 40.169C75.5365 40.2101 75.5215 40.2494 75.4992 40.2845C75.477 40.3197 75.4479 40.35 75.4136 40.3737C75.3794 40.3974 75.3407 40.4139 75.3 40.4223C75.2592 40.4307 75.2172 40.4308 75.1764 40.4226C74.7948 40.3547 74.4033 40.3679 74.0272 40.4614C73.8473 40.5072 73.6746 40.5778 73.5141 40.6713C73.4775 40.692 73.4372 40.7053 73.3954 40.7104C73.3537 40.7155 73.3114 40.7124 73.2708 40.7011C73.2303 40.6899 73.1924 40.6707 73.1593 40.6448C73.1262 40.6189 73.0985 40.5867 73.0779 40.5501L73.0449 40.4658ZM79.2572 61.5255C79.2396 61.4598 79.2426 61.3903 79.266 61.3264C79.2801 61.2863 79.3021 61.2493 79.3306 61.2178C79.3592 61.1862 79.3938 61.1606 79.4323 61.1426C79.4709 61.1246 79.5126 61.1144 79.5551 61.1127C79.5977 61.111 79.6401 61.1178 79.68 61.1327C80.278 61.3555 80.8902 61.5538 81.4939 61.6819C81.5345 61.6934 81.5723 61.7128 81.6054 61.739C81.6384 61.7651 81.6659 61.7976 81.6864 61.8344C81.7068 61.8713 81.7198 61.9118 81.7246 61.9537C81.7293 61.9956 81.7257 62.038 81.7141 62.0785C81.7026 62.119 81.6832 62.1569 81.657 62.1899C81.6308 62.2229 81.5984 62.2504 81.5615 62.2709C81.5247 62.2913 81.4842 62.3043 81.4423 62.3091C81.4004 62.3138 81.358 62.3102 81.3175 62.2986C80.6938 62.1344 80.0694 61.929 79.4494 61.7017C79.3901 61.6959 79.3337 61.673 79.2871 61.636C79.2404 61.5989 79.2055 61.5492 79.1863 61.4927L79.2572 61.5255ZM79.1797 52.1563C79.1681 52.1123 79.166 52.0663 79.1736 52.0214C79.1813 51.9765 79.1984 51.9338 79.2238 51.896C79.5657 51.364 79.874 50.8112 80.1468 50.2407C80.1908 50.167 80.2619 50.1133 80.3448 50.091C80.4278 50.0688 80.5162 50.0798 80.5912 50.1217C80.6639 50.1642 80.7169 50.2337 80.7387 50.315C80.7605 50.3964 80.7493 50.4831 80.7076 50.5563C80.4206 51.1513 80.0982 51.7286 79.7422 52.2851C79.7213 52.3226 79.6932 52.3556 79.6593 52.382C79.6255 52.4084 79.5867 52.4277 79.5453 52.4388C79.5038 52.4499 79.4605 52.4526 79.418 52.4466C79.3755 52.4407 79.3347 52.4262 79.2979 52.4042C79.2433 52.3797 79.1966 52.3405 79.1632 52.2909C79.1298 52.2413 79.1109 52.1833 79.1088 52.1235L79.1797 52.1563ZM76.7267 40.8768C76.7066 40.799 76.7137 40.7167 76.7471 40.6436C76.7928 40.5717 76.8638 40.5196 76.9461 40.4975C77.0283 40.4755 77.1159 40.4851 77.1914 40.5246C77.787 40.8223 78.3575 41.168 78.8971 41.5583C78.931 41.5832 78.9596 41.6146 78.9814 41.6505C79.0031 41.6865 79.0176 41.7264 79.0239 41.768C79.0303 41.8096 79.0283 41.852 79.0183 41.8928C79.0082 41.9336 78.9902 41.9721 78.9653 42.0059C78.9135 42.0753 78.8366 42.1216 78.7511 42.1349C78.6656 42.1481 78.5783 42.1272 78.508 42.0767C78.0018 41.7086 77.4648 41.3849 76.9029 41.1092C76.8414 41.0917 76.7859 41.0578 76.7424 41.0111C76.6988 40.9643 76.6689 40.9066 76.6558 40.8441L76.7267 40.8768ZM82.9881 62.5446C82.9671 62.5024 82.9547 62.4564 82.9519 62.4093C82.9595 62.3677 82.9754 62.328 82.9985 62.2925C83.0216 62.257 83.0516 62.2264 83.0866 62.2026C83.1216 62.1787 83.161 62.1621 83.2026 62.1536C83.2441 62.1451 83.2868 62.145 83.3284 62.1532C83.9585 62.2638 84.5906 62.343 85.227 62.4002C85.3114 62.4079 85.3893 62.4487 85.4435 62.5137C85.4978 62.5788 85.5241 62.6627 85.5167 62.7471C85.5141 62.7894 85.503 62.8308 85.4842 62.8689C85.4655 62.907 85.4393 62.941 85.4072 62.9688C85.3752 62.9967 85.3379 63.0179 85.2976 63.0312C85.2573 63.0445 85.2147 63.0496 85.1724 63.0463C84.514 62.9846 83.8601 62.9011 83.2177 62.7833C83.1434 62.7816 83.0722 62.7532 83.017 62.7034C82.9619 62.6536 82.9264 62.5856 82.9172 62.5118L82.9881 62.5446ZM80.8039 48.636C80.7917 48.5805 80.7941 48.5228 80.8108 48.4685C80.9763 47.8762 81.0631 47.2647 81.0688 46.6497C81.0684 46.6077 81.0763 46.566 81.092 46.527C81.1077 46.488 81.131 46.4524 81.1605 46.4224C81.1899 46.3924 81.225 46.3685 81.2637 46.3521C81.3024 46.3356 81.344 46.327 81.386 46.3266C81.4284 46.3248 81.4708 46.3317 81.5104 46.347C81.55 46.3622 81.5861 46.3854 81.6164 46.4151C81.6467 46.4449 81.6705 46.4805 81.6865 46.5198C81.7024 46.5592 81.7101 46.6014 81.7091 46.6438C81.7057 47.319 81.6142 47.9908 81.4371 48.6423C81.4122 48.7253 81.3557 48.7952 81.2797 48.8369C81.2036 48.8786 81.1143 48.8887 81.0309 48.865C80.9631 48.8597 80.8985 48.8336 80.8461 48.7902C80.7937 48.7467 80.756 48.6882 80.7382 48.6225L80.8039 48.636ZM79.795 43.1709C79.7797 43.1101 79.7815 43.0463 79.8002 42.9865C79.8189 42.9267 79.8538 42.8732 79.9009 42.8319C79.9665 42.7793 80.0502 42.7545 80.1339 42.7631C80.2175 42.7717 80.2945 42.8129 80.348 42.8778C80.7925 43.4119 81.1409 44.0191 81.3776 44.6724C81.3925 44.712 81.3994 44.7541 81.3979 44.7963C81.3964 44.8386 81.3865 44.8801 81.3689 44.9185C81.3513 44.9569 81.3263 44.9915 81.2952 45.0201C81.2642 45.0488 81.2277 45.071 81.1881 45.0856C81.1486 45.1019 81.1063 45.1099 81.0636 45.1091C81.0209 45.1083 80.9789 45.0987 80.9401 45.0809C80.9014 45.0631 80.8667 45.0375 80.8382 45.0057C80.8098 44.9739 80.7883 44.9366 80.7749 44.896C80.5587 44.3244 80.2515 43.7914 79.8654 43.3176C79.8028 43.2817 79.7546 43.225 79.7293 43.1574L79.795 43.1709ZM86.838 62.8485L86.8173 62.7712C86.8184 62.685 86.8532 62.6026 86.9143 62.5418C86.9754 62.4809 87.0579 62.4464 87.1441 62.4455C87.7747 62.4422 88.4169 62.4047 89.0417 62.3409C89.084 62.3358 89.127 62.3393 89.168 62.3511C89.2091 62.3628 89.2473 62.3827 89.2805 62.4095C89.3137 62.4363 89.3413 62.4694 89.3615 62.507C89.3817 62.5446 89.3942 62.5859 89.3982 62.6284C89.4058 62.7135 89.38 62.7982 89.3264 62.8647C89.2728 62.9312 89.1955 62.9743 89.1107 62.985C88.4666 63.054 87.8026 63.087 87.1526 63.0955C87.0678 63.1103 86.9805 63.0914 86.9094 63.0427C86.8384 62.9941 86.7891 62.9196 86.7723 62.8351L86.838 62.8485ZM90.6953 62.4465C90.6854 62.4047 90.6841 62.3613 90.6913 62.319C90.6985 62.2767 90.7141 62.2363 90.7373 62.2001C90.7604 62.164 90.7906 62.1328 90.8261 62.1086C90.8615 62.0844 90.9014 62.0675 90.9435 62.059C91.3396 61.9529 91.7259 61.8494 92.1219 61.7433C92.3441 61.6837 92.5663 61.6242 92.7884 61.5647C92.8287 61.5525 92.8709 61.5484 92.9128 61.5526C92.9546 61.5567 92.9952 61.5691 93.0323 61.589C93.0693 61.6089 93.1021 61.6359 93.1287 61.6684C93.1554 61.701 93.1753 61.7384 93.1874 61.7787C93.2011 61.8194 93.2065 61.8624 93.2032 61.9052C93.1999 61.948 93.1881 61.9898 93.1684 62.0279C93.1486 62.066 93.1214 62.0998 93.0884 62.1272C93.0553 62.1546 93.0171 62.175 92.976 62.1874C92.7442 62.2495 92.522 62.309 92.2902 62.3711C91.8845 62.4798 91.4788 62.5885 91.0731 62.6972C91.0268 62.7169 90.9766 62.7253 90.9264 62.7219C90.8762 62.7185 90.8276 62.7033 90.7844 62.6775C90.7412 62.6518 90.7047 62.6163 90.6778 62.5738C90.6509 62.5313 90.6344 62.4831 90.6296 62.433L90.6953 62.4465ZM94.3998 61.3193C94.379 61.2437 94.3865 61.1631 94.4211 61.0928C94.4557 61.0225 94.5149 60.9673 94.5875 60.9377C95.1656 60.6999 95.7457 60.4306 96.318 60.1324C96.3557 60.1132 96.3968 60.1017 96.439 60.0985C96.4812 60.0953 96.5236 60.1005 96.5637 60.1138C96.6039 60.1271 96.641 60.1483 96.6729 60.1761C96.7049 60.2038 96.731 60.2376 96.7498 60.2755C96.7884 60.3502 96.796 60.4371 96.771 60.5175C96.7461 60.5978 96.6905 60.665 96.6163 60.7047C96.0247 61.0081 95.4279 61.2923 94.8304 61.5352C94.7912 61.5515 94.7492 61.5598 94.7067 61.5597C94.6643 61.5596 94.6223 61.551 94.5832 61.5345C94.5441 61.518 94.5086 61.4939 94.4789 61.4636C94.4492 61.4333 94.4259 61.3973 94.4102 61.3579L94.3998 61.3193ZM97.8362 59.5392C97.8078 59.4855 97.7958 59.4246 97.8016 59.3642C97.8075 59.3037 97.8311 59.2463 97.8693 59.1991C98.3997 58.8602 98.9319 58.4899 99.4397 58.1053C99.4729 58.0794 99.5108 58.0602 99.5514 58.049C99.5919 58.0378 99.6343 58.0346 99.6761 58.0398C99.7179 58.0449 99.7582 58.0583 99.7948 58.0791C99.8314 58.0998 99.8636 58.1276 99.8894 58.1608C99.9398 58.2313 99.9614 58.3183 99.9498 58.4042C99.9381 58.49 99.8942 58.5682 99.8269 58.6228C99.312 59.0195 98.7604 59.3951 98.223 59.7462C98.1487 59.7919 98.0594 59.8063 97.9745 59.7864C97.8896 59.7664 97.8161 59.7137 97.77 59.6398L97.8362 59.5392ZM100.911 57.1831C100.896 57.1273 100.896 57.0683 100.912 57.0127C100.928 56.9572 100.96 56.9072 101.003 56.8686C101.478 56.441 101.927 55.9895 102.36 55.5213C102.421 55.4591 102.503 55.4232 102.59 55.4213C102.677 55.4194 102.761 55.4517 102.824 55.5111C102.855 55.5396 102.881 55.5743 102.898 55.613C102.916 55.6517 102.925 55.6937 102.926 55.7362C102.927 55.7787 102.919 55.821 102.902 55.8603C102.886 55.8996 102.862 55.9351 102.831 55.9646C102.391 56.445 101.923 56.9016 101.448 57.3705C101.384 57.428 101.299 57.4579 101.213 57.454C101.127 57.45 101.046 57.4123 100.987 57.3492L100.911 57.1831ZM103.549 54.354C103.538 54.3065 103.538 54.2572 103.548 54.2096C103.559 54.162 103.58 54.1174 103.61 54.0789C104.004 53.5798 104.371 53.0569 104.726 52.527C104.77 52.4533 104.841 52.3996 104.924 52.3773C105.007 52.3551 105.095 52.3661 105.17 52.408C105.208 52.4288 105.241 52.457 105.267 52.4908C105.294 52.5246 105.313 52.5635 105.324 52.6049C105.335 52.6464 105.338 52.6896 105.332 52.7321C105.326 52.7746 105.312 52.8155 105.289 52.8523C104.927 53.3945 104.541 53.9225 104.14 54.4338C104.086 54.5024 104.008 54.5474 103.922 54.5588C103.836 54.5702 103.749 54.5473 103.68 54.4949C103.598 54.4686 103.528 54.4138 103.483 54.3406L103.549 54.354ZM105.687 51.1307C105.677 51.0913 105.674 51.0502 105.679 51.0097C105.684 50.9693 105.697 50.9303 105.717 50.8949C106.023 50.3366 106.314 49.7617 106.574 49.1849C106.591 49.1463 106.615 49.1115 106.646 49.0824C106.676 49.0533 106.712 49.0304 106.751 49.0151C106.79 48.9998 106.832 48.9924 106.874 48.9932C106.916 48.9941 106.957 49.0032 106.996 49.0201C107.034 49.037 107.069 49.0612 107.098 49.0916C107.127 49.1219 107.15 49.1576 107.166 49.1968C107.181 49.236 107.188 49.2778 107.187 49.3198C107.187 49.3619 107.177 49.4033 107.161 49.4418C106.897 50.0406 106.598 50.6277 106.288 51.2079C106.244 51.2816 106.173 51.3353 106.09 51.3576C106.007 51.3798 105.919 51.3688 105.844 51.3269C105.794 51.3098 105.748 51.2822 105.71 51.246C105.672 51.2098 105.642 51.1659 105.622 51.1172L105.687 51.1307ZM107.268 47.6014C107.254 47.5398 107.255 47.4758 107.27 47.4145C107.48 46.8094 107.669 46.1998 107.816 45.5909C107.826 45.5492 107.843 45.5098 107.868 45.475C107.893 45.4403 107.925 45.4109 107.961 45.3885C107.998 45.3662 108.038 45.3514 108.081 45.3451C108.123 45.3387 108.166 45.3409 108.208 45.3515C108.29 45.3729 108.362 45.4257 108.406 45.4987C108.451 45.5718 108.466 45.6593 108.447 45.7428C108.285 46.3762 108.102 47.0051 107.913 47.6147C107.9 47.6555 107.879 47.6932 107.851 47.7255C107.823 47.7579 107.789 47.7844 107.751 47.8034C107.712 47.8223 107.67 47.8334 107.628 47.8359C107.585 47.8385 107.542 47.8324 107.502 47.8181C107.43 47.8211 107.359 47.7996 107.3 47.7569C107.242 47.7143 107.199 47.6531 107.18 47.5834L107.268 47.6014ZM108.197 43.8429L108.166 43.727C108.264 43.0959 108.329 42.46 108.359 41.8219C108.367 41.7373 108.407 41.659 108.471 41.6032C108.535 41.5475 108.619 41.5186 108.703 41.5227C108.789 41.5281 108.87 41.5668 108.927 41.6307C108.985 41.6945 109.016 41.7784 109.012 41.8643C108.967 42.5079 108.906 43.1663 108.81 43.8132C108.796 43.8986 108.75 43.9753 108.681 44.0268C108.611 44.0783 108.524 44.1006 108.439 44.0887C108.364 44.0873 108.291 44.0597 108.235 44.0105C108.178 43.9613 108.14 43.8938 108.128 43.8197L108.197 43.8429Z" fill="#999999"/>
</svg>
