<svg width="48" height="48" viewBox="0 0 48 48" fill="none" xmlns="http://www.w3.org/2000/svg">
<path d="M1.77208 0.162697C1.50652 0.260265 1.13277 0.523697 0.83771 0.816399C-0.0769883 1.72378 0.0016954 -0.120247 0.0016954 20.1445C0.0016954 40.419 -0.0671528 38.6726 0.818039 39.5507C1.71307 40.4385 0.808203 40.3702 13.8107 40.458L25.2198 40.5361L25.8395 42.9167C26.1739 44.2241 26.5574 45.4925 26.6755 45.7364C26.9902 46.3511 27.6197 47.0146 28.2393 47.3853C29.2425 47.9805 29.4589 48 34.5242 48C39.4026 48 39.7075 47.9707 40.6418 47.5024C41.1729 47.2292 41.9598 46.4975 42.2647 45.9706C42.786 45.0925 42.8843 44.5364 42.8843 42.4387V40.5068L44.2416 40.4483C46.012 40.3605 46.5234 40.2044 47.1824 39.5507C48.0676 38.6726 47.9987 40.4093 47.9987 20.1933C47.9987 -0.0226784 48.0676 1.71402 47.1824 0.826157C46.2579 -0.0909767 48.6085 -0.0031662 23.9609 0.0065918C4.41782 0.0065918 2.1655 0.026104 1.77208 0.162697ZM46.0907 1.42132C46.2382 1.52864 46.4546 1.74329 46.5628 1.88964C46.7595 2.14332 46.7693 2.29942 46.7988 5.3728L46.8283 8.58277H24.0002H1.18195V5.51915C1.18195 2.33845 1.21146 2.09453 1.60488 1.66524C2.08681 1.14813 0.759026 1.1774 24.1182 1.19691L45.8251 1.21643L46.0907 1.42132ZM46.8185 23.8423C46.8185 33.5698 46.789 38.0189 46.7103 38.214C46.5628 38.5945 46.1497 39.0043 45.7956 39.1116C45.6284 39.1604 44.9006 39.2384 44.1924 39.2677L42.8843 39.336V38.0384C42.8843 36.5066 42.7663 36.1456 42.0975 35.5894C41.5368 35.1113 40.9369 34.9748 40.1894 35.1699L39.6484 35.3162L39.1763 34.8479C38.5862 34.2625 37.9764 34.0576 37.2879 34.2137C37.042 34.2625 36.7667 34.3406 36.688 34.3796C36.5896 34.4186 36.4913 34.3406 36.3732 34.1552C36.2847 33.9991 36.029 33.7454 35.7929 33.5893C35.4487 33.3649 35.2717 33.3161 34.7799 33.3161C34.4455 33.3161 34.0816 33.3551 33.9537 33.3942L33.7373 33.4722V29.2573C33.7373 25.179 33.7275 25.0229 33.5308 24.6131C33.098 23.7155 31.9965 23.1886 31.0227 23.4033C30.3146 23.5594 29.7835 23.9691 29.4687 24.5936L29.213 25.1107V31.1794V37.2481L28.6131 36.6334C27.7377 35.726 26.7542 35.2577 25.328 35.0821C24.7772 35.0138 24.2953 35.2089 24.0297 35.5992C23.7445 36.009 23.7445 36.3407 24.0101 36.9456C24.2363 37.4725 24.8854 39.1994 24.8854 39.2872C24.8854 39.3946 2.46056 39.2189 2.17533 39.1116C1.82126 38.975 1.47701 38.6433 1.31965 38.2725C1.20162 38.0091 1.18195 35.5797 1.18195 23.8521V9.75357H24.0002H46.8185V23.8423ZM31.9079 24.6228C32.5866 24.9058 32.5571 24.7009 32.5571 29.9598C32.5571 36.0675 32.6358 38.7994 32.8226 38.9848C33.039 39.1994 33.5013 39.1506 33.6783 38.9067C33.8062 38.7311 33.8357 38.3506 33.8357 36.7993C33.8357 34.926 33.8357 34.9162 34.0816 34.682C34.3373 34.4186 34.7897 34.3601 35.1241 34.5455C35.5175 34.7503 35.5864 35.1309 35.5274 36.9359C35.488 38.4189 35.4979 38.653 35.6454 38.8774C35.7831 39.0921 35.8815 39.1311 36.1765 39.1019C36.7076 39.0628 36.7863 38.8384 36.7863 37.1993V35.8236L37.0912 35.5699C37.4945 35.2284 37.8781 35.2382 38.2813 35.5992L38.6059 35.8821L38.6551 37.7164C38.7042 39.5409 38.7042 39.5604 38.9403 39.6677C39.2354 39.8141 39.5501 39.7068 39.7075 39.4043C39.7861 39.258 39.8353 38.7311 39.8353 37.9993C39.8353 36.6822 39.914 36.4773 40.4648 36.2919C40.868 36.1651 41.2024 36.2724 41.4975 36.6432C41.7139 36.9163 41.7139 36.9359 41.6844 40.7703L41.6549 44.6339L41.3893 45.1218C41.0549 45.7559 40.3959 46.3609 39.7763 46.595C39.3239 46.7707 38.9796 46.7804 34.475 46.7804C29.7638 46.7804 29.6458 46.7804 29.2032 46.5755C28.5934 46.2926 27.9934 45.7364 27.7377 45.2291C27.6295 44.9949 27.1869 43.4436 26.7542 41.7752C26.0558 39.0726 25.5149 37.3261 25.1215 36.5749C25.0526 36.4285 25.0133 36.2919 25.0428 36.2724C25.1411 36.1748 26.0952 36.3895 26.6361 36.6334C27.3541 36.9554 27.9049 37.492 28.6327 38.5555L29.213 39.4043V40.5849C29.213 41.6288 29.2327 41.7752 29.4097 41.9508C29.6556 42.1947 29.813 42.1947 30.1376 41.9411L30.3933 41.7459V33.5503C30.3933 24.7107 30.3834 24.9643 30.9047 24.7107C31.4162 24.457 31.4948 24.457 31.9079 24.6228Z" fill="#FA7436"/>
</svg>
