<svg width="57" height="76" viewBox="0 0 57 76" fill="none" xmlns="http://www.w3.org/2000/svg">
<path d="M51.3364 14.4909C43.4408 9.7956 30.4207 21.105 27.1124 24.1871C27.7797 22.2325 28.9359 20.4793 30.4719 19.0928C30.5079 19.0647 30.5367 19.0285 30.5559 18.9872C30.5752 18.9458 30.5844 18.9006 30.5827 18.855C30.5828 18.8113 30.572 18.7681 30.5511 18.7296C30.5303 18.6911 30.5001 18.6583 30.4633 18.6343C29.7319 18.142 28.8732 17.8707 27.9906 17.8532C28.4448 17.2959 29.0284 16.8571 29.6909 16.5746C30.3534 16.2921 31.075 16.1743 31.7935 16.2314C31.8465 16.2392 31.9006 16.2313 31.9491 16.2087C31.9977 16.186 32.0384 16.1497 32.0663 16.1041C32.0933 16.0576 32.1075 16.0049 32.1075 15.9513C32.1075 15.8976 32.0933 15.8449 32.0663 15.7984C31.7178 15.2734 31.2362 14.8492 30.6703 14.569C30.1043 14.2887 29.4741 14.1622 28.8433 14.2022C29.9603 13.3532 32.4927 13.0475 33.5158 13.0135C33.5704 13.013 33.6237 12.9966 33.6691 12.9665C33.7145 12.9363 33.7501 12.8937 33.7716 12.8437C33.7926 12.7951 33.7997 12.7416 33.7922 12.6892C33.7846 12.6368 33.7628 12.5874 33.729 12.5465C32.7416 11.4029 31.3418 10.6923 29.8324 10.5682C31.2478 8.87013 35.4428 8.36068 35.4855 8.35219C35.5453 8.34762 35.602 8.32352 35.6467 8.28361C35.6914 8.2437 35.7217 8.19022 35.7328 8.13146C35.7468 8.09857 35.7542 8.06323 35.7545 8.0275C35.7548 7.99177 35.748 7.95633 35.7346 7.92321C35.7211 7.89008 35.7012 7.85992 35.676 7.83446C35.6508 7.809 35.6209 7.78874 35.5878 7.77484C34.257 6.931 32.7483 6.40504 31.1796 6.23805C32.8849 4.13238 38.3078 2.84182 38.3675 2.84182C38.4253 2.82833 38.4776 2.79747 38.5172 2.75343C38.5569 2.7094 38.582 2.6543 38.5891 2.59558C38.5958 2.53766 38.5848 2.47908 38.5574 2.42755C38.53 2.37602 38.4875 2.33396 38.4357 2.30691C34.8033 0.421998 30.3695 2.25596 30.1649 2.30691C25.049 4.85408 24.8187 13.3022 25.3559 19.1522C23.3436 12.0456 18.9695 0.914463 11.2359 0.328613C10.9801 0.328613 4.95184 0.328593 1.64353 4.20879C1.61014 4.25601 1.59222 4.31236 1.59222 4.37011C1.59222 4.42787 1.61014 4.48421 1.64353 4.53143C1.67335 4.5822 1.7176 4.62301 1.77072 4.64871C1.82384 4.6744 1.88343 4.68383 1.94194 4.67578C2.01868 4.67578 9.22365 3.51256 12.1738 5.29558C10.3741 6.22481 8.82665 7.5735 7.66328 9.22672C7.62844 9.27655 7.60976 9.33582 7.60976 9.39654C7.60976 9.45726 7.62844 9.51651 7.66328 9.56634C7.69799 9.61493 7.74694 9.65165 7.80343 9.67141C7.85992 9.69117 7.92117 9.69302 7.97876 9.67672C8.03845 9.67672 13.3846 8.19088 15.8403 9.63428C14.9757 10.0516 14.2036 10.6369 13.5696 11.3558C12.9355 12.0747 12.4523 12.9125 12.1483 13.8201C12.1306 13.8717 12.1285 13.9273 12.1422 13.9801C12.1558 14.0329 12.1846 14.0806 12.225 14.1173C12.2632 14.1556 12.312 14.1817 12.3651 14.1923C12.4183 14.2029 12.4734 14.1975 12.5234 14.1767C13.7939 13.7098 17.1022 12.7843 18.8075 13.4126C18.0224 13.6401 17.3145 14.0765 16.7601 14.675C16.2056 15.2735 15.8257 16.0112 15.6612 16.8088C15.6529 16.862 15.6597 16.9163 15.6808 16.9658C15.7019 17.0154 15.7364 17.058 15.7806 17.089C15.8272 17.1158 15.8802 17.1299 15.9341 17.1299C15.988 17.1299 16.0409 17.1158 16.0875 17.089C16.9309 16.6566 17.8705 16.4438 18.8187 16.4706C19.767 16.4973 20.693 16.7626 21.5104 17.2418C20.4458 17.6711 19.5343 18.4073 18.8928 19.356C18.8719 19.3952 18.8609 19.4389 18.8609 19.4834C18.8609 19.5278 18.8719 19.5715 18.8928 19.6107C18.9086 19.6526 18.9336 19.6903 18.9661 19.7212C18.9986 19.7521 19.0377 19.7752 19.0804 19.789C21.5901 20.6856 23.823 22.2157 25.5605 24.2296C21.3484 22.6079 7.05788 17.7258 2.04425 24.2296C1.92488 24.4079 -0.897413 28.6447 0.338939 32.7966C0.355972 32.8523 0.389515 32.9015 0.435165 32.9379C0.480814 32.9743 0.536479 32.996 0.594778 33.0003H0.6374C0.688512 32.9949 0.737335 32.9764 0.779163 32.9467C0.820991 32.9169 0.854378 32.8769 0.876117 32.8305C0.876117 32.7711 3.3659 27.3032 5.94093 26.0381C5.78733 27.7128 6.03272 29.4 6.65716 30.9626C6.67696 31.0185 6.71404 31.0666 6.76306 31.1002C6.81208 31.1338 6.87054 31.151 6.93001 31.1494C6.99128 31.1485 7.05067 31.1283 7.0997 31.0917C7.14872 31.0551 7.18483 31.004 7.20284 30.9456C7.20284 30.9032 8.60974 26.59 10.7073 25.4777C10.6139 26.272 10.6787 27.0768 10.8982 27.8461C11.1177 28.6154 11.4874 29.334 11.9863 29.9607C12.0205 30.0024 12.066 30.0333 12.1174 30.0499C12.1688 30.0664 12.2239 30.0679 12.2762 30.0541C12.3287 30.0435 12.3769 30.0177 12.4149 29.9799C12.4528 29.9422 12.4787 29.8942 12.4893 29.8418C12.7366 28.772 13.5637 26.14 14.7318 25.172C14.5536 25.8237 14.5529 26.511 14.7297 27.1631C14.9065 27.8152 15.2545 28.4086 15.7379 28.8824C15.7778 28.9181 15.8265 28.9424 15.879 28.9529C15.9315 28.9633 15.9859 28.9595 16.0364 28.9418C16.0873 28.9219 16.1318 28.8884 16.1648 28.8449C16.1979 28.8015 16.2184 28.7499 16.224 28.6956C16.3138 27.9283 16.5897 27.1942 17.0279 26.5566C17.4661 25.9191 18.0534 25.3973 18.7393 25.0362C18.5695 25.9633 18.6762 26.9197 19.0463 27.7871C19.0633 27.8279 19.0901 27.8638 19.1243 27.8919C19.1584 27.9201 19.199 27.9395 19.2424 27.9485C19.2854 27.9579 19.3301 27.9575 19.3729 27.9472C19.4158 27.9369 19.4557 27.917 19.4896 27.889C20.1633 27.3628 20.8993 26.9209 21.681 26.573C21.3395 26.8867 21.0745 27.2738 20.906 27.7049C20.7376 28.136 20.6702 28.5997 20.7089 29.0607C20.7784 29.8701 21.1676 30.6189 21.7911 31.1427C22.4146 31.6664 23.2214 31.9223 24.0343 31.8541C24.7025 31.7957 25.3324 31.518 25.8249 31.0645C26.5496 32.9494 29.3208 41.9834 24.6312 59.9324C18.3044 61.8258 17.2983 63.8127 16.4201 65.5702C16.1352 66.2088 15.7559 66.8012 15.2946 67.3278C14.8488 67.9552 14.5852 68.6928 14.5325 69.4596C14.4799 70.2264 14.6403 70.9929 14.9961 71.6749C16.1643 74.1032 20.0098 76.7693 31.6571 75.7928C39.672 75.1136 44.6089 73.2457 46.3313 70.24C46.6809 69.6643 46.8907 69.0153 46.944 68.3446C46.9973 67.6739 46.8926 67.0001 46.6382 66.3768C44.9329 62.3183 40.5673 59.0325 36.4063 58.6334C35.7413 52.0872 33.7034 36.7447 28.8774 30.6145C29.0815 30.6357 29.2872 30.6357 29.4913 30.6145C30.3048 30.5432 31.0568 30.1538 31.5826 29.5316C32.1084 28.9094 32.3651 28.105 32.2966 27.2947C32.2435 26.6857 32.0078 26.1066 31.6201 25.6327C31.2324 25.1588 30.7105 24.8119 30.1223 24.6371C31.7648 24.495 33.4195 24.6475 35.008 25.0871C35.0465 25.1059 35.0888 25.1156 35.1316 25.1156C35.1745 25.1156 35.2168 25.1059 35.2552 25.0871C35.2931 25.0636 35.3245 25.0311 35.3468 24.9926C35.3691 24.9541 35.3816 24.9108 35.3832 24.8664C35.4046 23.8104 35.1076 22.7723 34.5305 21.8862C35.3969 21.9676 36.2294 22.2625 36.9528 22.7442C37.6762 23.2259 38.2679 23.8794 38.6744 24.6456C38.698 24.6934 38.7343 24.7337 38.7795 24.7622C38.8246 24.7906 38.8768 24.8061 38.9302 24.8069C38.9837 24.8061 39.0358 24.7906 39.0809 24.7622C39.1261 24.7337 39.1624 24.6934 39.186 24.6456C39.4955 23.9583 39.6113 23.2002 39.5212 22.4524C39.4311 21.7045 39.1384 20.9952 38.6744 20.4003C40.2774 20.8673 42.2556 23.2871 42.9377 24.306C42.967 24.3481 43.0067 24.382 43.053 24.4043C43.0994 24.4266 43.1507 24.4366 43.202 24.4333C43.2561 24.4253 43.3067 24.4018 43.3476 24.3656C43.3885 24.3294 43.4179 24.2822 43.4323 24.2296C43.6849 23.3875 43.7682 22.5041 43.6775 21.63C43.5868 20.7558 43.3238 19.908 42.9036 19.1352C45.5212 19.39 48.7443 23.3041 48.7784 23.3805C48.8166 23.4268 48.8681 23.4605 48.9259 23.4772C48.9837 23.4938 49.0452 23.4927 49.1024 23.4739C49.1608 23.455 49.211 23.4171 49.2451 23.3662C49.2791 23.3154 49.2949 23.2546 49.29 23.1937C49.2972 21.3321 48.8587 19.4955 48.011 17.8362C51.1744 18.0739 55.9748 22.7437 56.026 22.7947C56.0679 22.8358 56.1216 22.8629 56.1798 22.872C56.2379 22.8812 56.2974 22.8719 56.35 22.8456C56.4028 22.8213 56.4467 22.7813 56.4757 22.7311C56.5047 22.681 56.5174 22.6231 56.512 22.5654C56.1454 17.8362 51.5495 14.6352 51.3364 14.4909ZM36.0823 61.707C35.9707 62.5991 35.6034 63.4403 35.0243 64.1299C34.4451 64.8196 33.6787 65.3285 32.8167 65.5957C30.3951 66.4447 26.976 65.8844 25.3559 64.373C25.0259 64.1062 24.7793 63.7512 24.6448 63.3496C24.5104 62.9481 24.4938 62.5166 24.597 62.106L24.8017 61.3589C26.8989 62.135 29.1325 62.4787 31.3671 62.3692C33.1077 62.2994 34.754 61.5634 35.963 60.3145C36.0397 61.0872 36.0738 61.5796 36.0823 61.707ZM35.8862 59.4995C32.9616 63.4136 26.2853 61.2825 24.9466 60.7985C25.3389 59.3551 25.6828 57.9683 25.9784 56.6381C27.4852 57.5645 29.2545 57.9759 31.0176 57.8098C32.6155 57.641 34.1575 57.1282 35.5366 56.307C35.6816 57.5466 35.801 58.6334 35.8862 59.4995ZM35.4599 55.6872C30.344 58.7438 26.831 56.5362 26.0807 56.0353C26.3706 54.7023 26.6093 53.4287 26.8225 52.2145C28.1972 52.6565 29.6455 52.8267 31.0858 52.7155C32.4028 52.6115 33.6808 52.2201 34.8289 51.5692C35.1103 53.0381 35.2979 54.473 35.4599 55.6872ZM26.9333 51.6372C27.1465 50.3636 27.317 49.1409 27.4449 47.9947C28.5731 48.4056 29.7781 48.565 30.9749 48.4617C32.0931 48.3673 33.1779 48.0342 34.1553 47.4853C34.3856 48.6655 34.5817 49.8287 34.7607 50.9579C33.5779 51.6059 32.2724 52.001 30.9275 52.118C29.5826 52.235 28.2281 52.0712 26.9504 51.6372H26.9333ZM27.5046 47.3919C27.6154 46.3051 27.7007 45.2692 27.7519 44.2928C28.7151 44.6114 29.7332 44.7326 30.7447 44.6494C31.6811 44.5664 32.587 44.2763 33.3965 43.8004C33.6267 44.8107 33.8484 45.8381 34.0445 46.8485C33.0667 47.4171 31.9739 47.7617 30.8456 47.8572C29.7173 47.9526 28.5818 47.7966 27.5217 47.4004L27.5046 47.3919ZM27.786 43.69C27.786 42.7815 27.8371 41.9239 27.8286 41.1428C28.4584 41.2569 29.1006 41.2883 29.7386 41.2362C30.723 41.1701 31.6687 40.8287 32.4671 40.2513C32.7484 41.2362 33.0128 42.2466 33.2515 43.2654C32.4293 43.7269 31.516 44.0046 30.5752 44.0794C29.6343 44.1541 28.6884 44.0242 27.803 43.6985L27.786 43.69ZM27.8286 40.523C27.8286 39.5126 27.7604 38.5872 27.6837 37.7381C28.1421 37.8414 28.6139 37.8729 29.082 37.8315C29.9269 37.7556 30.7377 37.4631 31.4354 36.9824C31.7338 37.8315 32.0237 38.6805 32.288 39.606C31.6536 40.0608 30.9305 40.3782 30.1654 40.5376C29.4002 40.697 28.61 40.6949 27.8457 40.5315L27.8286 40.523ZM27.6325 37.1268C27.5586 36.4136 27.4733 35.7598 27.3767 35.1655C27.6461 35.1917 27.9174 35.1917 28.1867 35.1655C28.974 35.1108 29.7247 34.8141 30.3354 34.3164C30.6509 34.9871 30.9408 35.7004 31.2307 36.439C30.727 36.8201 30.1423 37.081 29.5214 37.2017C28.9006 37.3224 28.2602 37.2997 27.6496 37.1352L27.6325 37.1268ZM27.2829 34.5796C27.155 33.9004 27.0271 33.3145 26.8992 32.8135C27.075 32.8306 27.2521 32.8306 27.4279 32.8135C28.0714 32.7697 28.6772 32.4952 29.1332 32.0409C29.4891 32.5882 29.8136 33.1552 30.1052 33.739C29.7305 34.0793 29.2842 34.3322 28.7989 34.479C28.3136 34.6259 27.8015 34.6632 27.3 34.5881L27.2829 34.5796ZM26.7287 32.2022C26.5667 31.6418 26.4217 31.2258 26.3109 30.9371H26.6775C27.1298 30.8958 27.5669 30.7536 27.9565 30.5211C28.2606 30.8467 28.5453 31.1898 28.8092 31.5485C28.5545 31.8304 28.2295 32.0401 27.8671 32.1565C27.5047 32.2728 27.1178 32.2915 26.7458 32.2107L26.7287 32.2022ZM27.8457 29.9183C27.5658 30.1093 27.2505 30.243 26.9182 30.3115C26.5859 30.38 26.2432 30.382 25.9101 30.3173C25.3824 30.2094 24.9038 29.9345 24.5458 29.5336C24.1877 29.1327 23.9695 28.6273 23.9235 28.0928C23.8941 27.772 23.9288 27.4486 24.0253 27.1411C24.1219 26.8337 24.2785 26.5483 24.4862 26.3013C24.6943 26.044 24.9528 25.8315 25.246 25.6768C25.5392 25.5221 25.8609 25.4284 26.1915 25.4013H26.5582C26.8745 25.4171 27.1845 25.495 27.4705 25.6305C27.8663 25.8163 28.2061 26.1023 28.456 26.4599C28.7059 26.8175 28.8571 27.2342 28.8944 27.6683C28.9377 28.1019 28.8651 28.5392 28.6839 28.9358C28.5027 29.3325 28.2194 29.6743 27.8627 29.9268L27.8457 29.9183ZM30.4037 2.89276C31.4975 2.47075 32.6457 2.20491 33.8143 2.10314C35.0354 1.97676 36.2695 2.11877 37.4295 2.51917C35.6475 3.01162 31.4609 4.35315 30.4037 6.40787C30.3764 6.45113 30.3619 6.50114 30.3619 6.5522C30.3619 6.60325 30.3764 6.65329 30.4037 6.69655C30.4303 6.73926 30.4683 6.77377 30.5134 6.79625C30.5586 6.81874 30.6091 6.82832 30.6594 6.8239C32.023 6.85637 33.3579 7.22075 34.5476 7.88522C33.0298 8.16541 29.9176 8.92957 29.0138 10.6786C28.9891 10.7212 28.9761 10.7695 28.9761 10.8187C28.9761 10.8679 28.9891 10.9162 29.0138 10.9588C29.0401 11.0024 29.0777 11.0381 29.1228 11.0621C29.1679 11.086 29.2186 11.0973 29.2696 11.0947C30.5815 11.1007 31.846 11.5838 32.8252 12.4532C31.5292 12.5635 28.6045 12.9796 27.8542 14.3975C27.8255 14.4433 27.8102 14.4963 27.8102 14.5503C27.8102 14.6044 27.8255 14.6573 27.8542 14.7032C27.8847 14.7496 27.9291 14.7853 27.9812 14.8052C28.0332 14.825 28.0903 14.8279 28.1441 14.8135C28.6761 14.7071 29.226 14.7286 29.748 14.8763C30.27 15.0239 30.7491 15.2935 31.1455 15.6626C30.3249 15.677 29.5219 15.9017 28.8139 16.3152C28.106 16.7286 27.517 17.3168 27.1039 18.023C27.0768 18.0679 27.0625 18.1192 27.0625 18.1715C27.0625 18.2239 27.0768 18.2753 27.1039 18.3201C27.1332 18.3642 27.1742 18.3994 27.2224 18.4219C27.2705 18.4444 27.3239 18.4532 27.3767 18.4475C28.1825 18.3921 28.9886 18.5503 29.713 18.906C28.2647 20.3007 27.1639 22.0133 26.4985 23.9069C25.8931 19.8315 24.0002 6.11919 30.4719 2.90126L30.4037 2.89276ZM19.5152 19.4494C20.2048 18.6343 21.108 18.0259 22.1243 17.6918C22.1755 17.6773 22.2217 17.649 22.2578 17.6101C22.2939 17.5711 22.3185 17.523 22.329 17.4711C22.3373 17.4188 22.3313 17.3652 22.3118 17.316C22.2924 17.2667 22.26 17.2235 22.2181 17.1909C21.3742 16.5609 20.3804 16.16 19.3341 16.0275C18.2878 15.8951 17.2249 16.0356 16.2495 16.4352C16.9402 14.3126 19.3703 13.8881 19.4811 13.8371C19.5356 13.8302 19.5868 13.807 19.6279 13.7707C19.6689 13.7343 19.698 13.6864 19.7113 13.6333C19.7239 13.58 19.7218 13.5242 19.7053 13.472C19.6888 13.4197 19.6585 13.3728 19.6175 13.3362C18.0316 12.0116 14.2543 13.039 12.7963 13.506C13.5101 11.931 14.7999 10.6862 16.403 10.0248C16.4515 10.0085 16.4946 9.97932 16.5276 9.94042C16.5607 9.90152 16.5825 9.8544 16.5906 9.8041C16.5993 9.75461 16.5953 9.70371 16.5789 9.6562C16.5625 9.60868 16.5342 9.5661 16.4968 9.5324C14.5527 7.87673 10.3236 8.58146 8.53299 8.98051C9.63494 7.54771 11.0843 6.41706 12.7451 5.69464C12.7931 5.67752 12.8357 5.6481 12.8687 5.60934C12.9016 5.57058 12.9237 5.52387 12.9327 5.4739C12.9431 5.4244 12.9399 5.37301 12.9234 5.32517C12.9069 5.27734 12.8777 5.23484 12.8389 5.2022C10.5282 3.26634 4.73868 3.78426 2.60704 4.04746C5.83008 0.939913 11.1336 0.956908 11.1848 0.956908C20.4958 1.67012 24.904 19.2881 25.9101 23.9833C24.1926 21.9804 22.0088 20.4267 19.5493 19.4579L19.5152 19.4494ZM19.3873 27.3032C19.161 26.4691 19.161 25.5901 19.3873 24.756C19.4032 24.7056 19.4044 24.6517 19.3908 24.6006C19.3772 24.5496 19.3494 24.5033 19.3106 24.4673C19.2735 24.4301 19.2267 24.404 19.1754 24.392C19.1242 24.38 19.0705 24.3826 19.0207 24.3994C18.1942 24.6927 17.4574 25.1927 16.881 25.8514C16.3046 26.5101 15.9081 27.3054 15.7294 28.1607C15.4137 27.666 15.2233 27.1024 15.1743 26.5183C15.1252 25.9342 15.2192 25.347 15.448 24.8069C15.477 24.7628 15.4925 24.7111 15.4925 24.6584C15.4925 24.6056 15.477 24.5539 15.448 24.5098C15.4115 24.4689 15.364 24.4392 15.3112 24.4242C15.2584 24.4092 15.2023 24.4094 15.1496 24.4249C13.4955 24.9088 12.4723 27.923 12.1056 29.222C11.367 28.018 11.1056 26.5831 11.3723 25.1975C11.3829 25.1487 11.3806 25.0981 11.3657 25.0505C11.3507 25.0029 11.3237 24.9599 11.2871 24.9258C11.2519 24.8885 11.2065 24.8621 11.1566 24.8501C11.1066 24.838 11.0542 24.8407 11.0057 24.8579C8.97639 25.4437 7.5354 28.5937 6.95559 30.0966C6.48641 28.7031 6.3664 27.2166 6.606 25.7664C6.62014 25.7171 6.62046 25.665 6.60694 25.6156C6.59341 25.5662 6.56654 25.5214 6.52926 25.4862C6.49295 25.4505 6.44757 25.4254 6.39801 25.4134C6.34845 25.4014 6.29655 25.4031 6.24787 25.4183C3.85191 26.1315 1.58383 30.2579 0.722645 31.9815C0.100206 28.339 2.50469 24.722 2.52174 24.6966C3.97126 22.8286 6.29902 21.9881 8.95931 21.7588C14.9705 21.2494 22.6018 23.8984 25.4241 24.9598C23.2528 25.2497 21.1828 26.0533 19.3873 27.3032ZM24.3327 25.7324L24.1878 25.8683H23.932L24.3327 25.7324ZM21.2376 29.1286C21.2096 28.8024 21.2465 28.4738 21.3462 28.1618C21.446 27.8498 21.6066 27.5605 21.8189 27.3104C22.0312 27.0604 22.291 26.8545 22.5834 26.7046C22.8758 26.5548 23.195 26.4639 23.5227 26.4371H23.7785V26.4796C23.7785 26.522 23.7359 26.573 23.7103 26.6154C23.652 26.7311 23.6007 26.8502 23.5568 26.972L23.5056 27.1503C23.4711 27.27 23.4455 27.392 23.4289 27.5154V27.6768C23.4119 27.8603 23.4119 28.0451 23.4289 28.2286C23.442 28.3833 23.4677 28.5366 23.5056 28.6871C23.5056 28.7381 23.5057 28.789 23.5483 28.84L23.6506 29.1286L23.7273 29.29C23.7677 29.3747 23.8133 29.457 23.8638 29.5362L23.9661 29.6975C24.0153 29.7718 24.0694 29.8427 24.1281 29.9098L24.256 30.0541C24.317 30.1234 24.3825 30.1886 24.4521 30.2494L24.597 30.3683C24.6701 30.4296 24.7471 30.4863 24.8273 30.5381L24.9722 30.6315C25.0951 30.701 25.2234 30.7607 25.3559 30.8098C24.9619 31.1431 24.4728 31.345 23.9575 31.3871C23.6234 31.4185 23.2864 31.3827 22.9664 31.282C22.6464 31.1812 22.35 31.0175 22.0948 30.8005C21.8395 30.5836 21.6306 30.3178 21.4804 30.0189C21.3302 29.7201 21.2419 29.3942 21.2205 29.0607L21.2376 29.1286ZM46.0925 66.7334C46.3102 67.2839 46.3966 67.8772 46.3448 68.4665C46.293 69.0559 46.1045 69.6252 45.7941 70.1296C44.6771 72.0655 41.3006 74.5532 31.5803 75.3853C19.6431 76.3957 16.3775 73.441 15.4822 71.5815C15.1821 71.0022 15.0429 70.3537 15.0788 69.7029C15.1148 69.052 15.3247 68.4226 15.6868 67.8796C16.1878 67.3124 16.6016 66.6743 16.9146 65.9862C17.7673 64.2881 18.6626 62.5391 24.4265 60.7476C24.3157 61.1806 24.1963 61.5966 24.0769 62.0551C23.9362 62.5657 23.9484 63.1062 24.112 63.61C24.2756 64.1138 24.5835 64.559 24.9978 64.8909C25.8501 65.5676 26.828 66.0703 27.8755 66.3704C28.9231 66.6705 30.0197 66.7621 31.1028 66.64C31.7651 66.5838 32.418 66.447 33.0469 66.2325C34.0128 65.9298 34.8707 65.3565 35.5179 64.581C36.1651 63.8055 36.5742 62.8608 36.6962 61.8598V61.8004C36.6962 61.6221 36.6195 60.7391 36.4831 59.3721C38.5613 59.7077 40.5242 60.5489 42.1975 61.8212C43.8709 63.0935 45.2029 64.7575 46.0755 66.6655L46.0925 66.7334ZM31.7167 27.5069C31.7448 27.8325 31.7082 28.1604 31.6089 28.4719C31.5097 28.7834 31.3498 29.0724 31.1384 29.3223C30.927 29.5723 30.6682 29.7783 30.3768 29.9286C30.0854 30.079 29.7671 30.1707 29.4401 30.1985C29.1541 30.226 28.8655 30.203 28.5875 30.1305C28.6387 30.0881 28.6728 30.0371 28.7239 29.9862L28.7921 29.9098C28.8689 29.8164 28.9456 29.7145 29.0138 29.6126C29.0735 29.5192 29.1247 29.4173 29.1758 29.3239L29.227 29.2135C29.227 29.1371 29.2867 29.0607 29.3123 28.9758C29.3378 28.8909 29.3122 28.8909 29.3549 28.8485C29.3798 28.7705 29.3997 28.6911 29.4146 28.6107V28.4834V28.2286C29.4185 28.1891 29.4185 28.1493 29.4146 28.1098C29.4231 27.9826 29.4231 27.8549 29.4146 27.7277C29.4146 27.6003 29.4146 27.4815 29.3549 27.3541C29.2952 27.2268 29.3549 27.2777 29.3549 27.2353C29.3549 27.1928 29.3122 27.0739 29.2866 26.9975L29.2355 26.8617C29.2078 26.7894 29.1765 26.7185 29.1417 26.6494C29.1223 26.6052 29.0995 26.5626 29.0735 26.522C29.0735 26.4541 28.9968 26.3862 28.9541 26.3183L28.8774 26.2079C28.8251 26.1286 28.7651 26.0547 28.6983 25.9871L28.6472 25.9192C28.5661 25.8329 28.4808 25.7507 28.3914 25.673L28.2891 25.5966L28.1441 25.4777C28.3984 25.3669 28.6691 25.2981 28.9456 25.2739C29.5983 25.2019 30.2532 25.3888 30.7686 25.794C31.284 26.1992 31.6185 26.7901 31.6997 27.439L31.7167 27.5069ZM47.525 17.3182C47.4748 17.3228 47.4265 17.3401 47.3847 17.3683C47.343 17.3965 47.3091 17.4348 47.2863 17.4796C47.2616 17.5237 47.2487 17.5734 47.2487 17.6239C47.2487 17.6744 47.2616 17.7241 47.2863 17.7682C48.1392 19.1841 48.6255 20.7887 48.7017 22.4381C47.5335 21.1645 44.7539 18.4475 42.4176 18.6513C42.3681 18.6548 42.3205 18.6717 42.28 18.7001C42.2394 18.7285 42.2074 18.7674 42.1874 18.8126C42.1627 18.8567 42.1498 18.9064 42.1498 18.9569C42.1498 19.0075 42.1627 19.0571 42.1874 19.1013C43.0244 20.4432 43.3285 22.0479 43.04 23.6013C42.1874 22.4466 39.8681 19.7041 37.9667 19.8739C37.9113 19.8763 37.858 19.8955 37.8138 19.9289C37.7696 19.9623 37.7367 20.0082 37.7194 20.0607C37.6984 20.1112 37.6937 20.1669 37.7059 20.2201C37.7182 20.2734 37.7467 20.3215 37.7876 20.3579C38.2501 20.8288 38.5885 21.4061 38.773 22.0386C38.9574 22.671 38.9822 23.3391 38.845 23.9833C38.3154 23.178 37.5876 22.5211 36.7309 22.0752C35.8741 21.6294 34.917 21.4094 33.9507 21.4362C33.8968 21.4396 33.8448 21.4571 33.7999 21.4869C33.755 21.5167 33.7188 21.5578 33.6949 21.606C33.674 21.6547 33.6668 21.7081 33.6744 21.7605C33.6819 21.8129 33.7037 21.8623 33.7375 21.9032C34.3216 22.6859 34.6758 23.6147 34.7607 24.5862C33.173 24.1921 31.5302 24.0658 29.9006 24.2126C29.1109 24.2851 28.3274 24.4128 27.5558 24.5947C30.9664 21.4956 43.6284 10.6446 50.9953 15.0343C51.0379 15.0343 55.0369 17.8447 55.8299 21.8862C54.3462 20.4428 50.2791 17.0381 47.525 17.2758V17.3182Z" fill="#999999"/>
</svg>
